<svg version="1.1" xmlns="http://www.w3.org/2000/svg" viewBox="0 0 403 151.52338129496405">
  <!-- svg-source:excalidraw -->
  <defs>
    <style>
      @font-face {
        font-family: "Virgil";
        src: url("https://excalidraw.com/FG_Virgil.woff2");
      }
      @font-face {
        font-family: "Cascadia";
        src: url("https://excalidraw.com/Cascadia.woff2");
      }
    </style>
  </defs>
  <rect x="0" y="0" width="403" height="151.52338129496405" fill="#ffffff"></rect><g transform="translate(43 65.52338129496405) rotate(0 144.5 15)"><path d="M0.5088023761688232 0.17683124526672364 C103.68882210565567 2.039256572015976, 208.01371783201753 0.9856676453558197, 287.6983777483368 -0.45306043471374513 M-0.5706043112045288 0.5482986461898803 C81.72081017765579 0.9697553492816926, 163.0360797930786 0.4364981352680207, 289.15665584724275 0.5486742541488647 M290.2927396297455 1.834667444229126 C290.4128899693489 11.189100861549383, 289.4614815831184 21.39924716949464, 290.4463269710541 29.649219751358046 M289.6820241212845 -0.01364147663116455 C288.2914809823036 7.572001934051519, 288.0925635933876 15.860648274421703, 288.76886570453644 30.916423678398147 M290.06586051894226 29.6584922618683 C182.23753350854722 30.278929187944243, 76.24699029502716 29.311586730034087, -0.022662815139770507 30.414783188137832 M289.19032006897123 30.532855711326615 C229.80076851971054 29.170227938046327, 169.18257179701232 29.207481939657654, 0.45386783054351804 30.177785766160596 M1.451354742050171 28.344753503799453 C-0.5655462384223939 22.752763628959666, 1.1104867815971373 14.34461164474488, -0.012733697891235352 1.3316690921783447 M0.3176823854446411 30.846427798271193 C0.12762783765792857 18.822429895401008, 0.6110834956169129 9.212372422218323, 0.20164310932159424 -0.4854699373245239" stroke="#000000" stroke-width="1" fill="none"></path></g><g transform="translate(223 10.523381294964054) rotate(0 83 16)"><path d="M-0.634418249130249 -0.0033037662506103516 C52.83944222927093 1.3079679465293883, 102.82526559829711 -0.5841142678260804, 167.49361062049863 -1.9217379093170166 M-0.16606152057647705 0.04434025287628174 C48.40019526481628 0.1183949637413022, 95.59132997989654 0.5948926138877866, 166.5057028532028 0.7824269533157349 M165.10097146034238 -1.0066378116607666 C166.67412732124325 11.43858428001404, 166.71037457466122 24.430437231063845, 165.07690072059629 33.07468390464783 M165.50524508953092 -0.31428325176239014 C165.01436263561246 9.292128109931946, 166.28511840343472 19.650614666938782, 165.1964186429977 32.32431614398956 M166.33074593544004 33.43704962730408 C131.55042335987088 30.33816637277603, 95.61018867492673 33.55790056467056, 1.9436380863189697 33.35406470298767 M166.13834369182584 31.988348126411438 C131.877003288269 33.72185643434524, 98.9514783143997 33.263539631366726, 0.8918951749801636 32.67199146747589 M1.2814676761627197 33.72619605064392 C0.9511066150665284 22.060896444320676, -1.7416500377655029 15.364102697372434, -1.429614782333374 -0.9351580142974854 M-0.9425469636917114 32.315515637397766 C0.06030845165252691 23.190932583808898, -0.7380275774002074 16.73248722553253, -0.20864880084991455 0.31373417377471924" stroke="#000000" stroke-width="1" fill="none"></path></g><g transform="translate(233.5 19.523381294964054) rotate(0 71.5 11)"><text x="0" y="15" font-family="Virgil" font-size="16px" fill="#000000" text-anchor="start" style="white-space: pre;" direction="ltr">Frankfurt(Main)Hbf</text></g><g transform="translate(41.6906474820143 10) rotate(0 84.19455912722603 18.121402877697847)"><path d="M1.1381871495395899 1.431895425543189 C55.14150655442686 0.16560476675901747, 110.54519560347917 -0.3488106761845555, 167.3516272104225 -0.73018635250628 M-0.7059484766796231 -0.8389178020879626 C61.00482000127096 1.1241397504874824, 121.74121847647496 1.6365655009814857, 168.62164964833025 0.5229138927534223 M166.6376813447914 0.3889337684959173 C166.63169963752242 8.558696279218658, 169.63197113667937 20.002252964135735, 169.930182853981 36.97208961534898 M167.59495940365557 -0.841886798851192 C167.95575223725945 9.013585973476571, 167.86716939371735 18.56518472999623, 169.1916681484199 36.12873747542153 M167.61258403424833 36.15946229982774 C121.99886630295674 35.98436974577892, 74.5639605986427 39.70772056870449, -1.3209677543491125 35.80833556938569 M167.6763991073585 36.576856400516135 C121.44404217428016 36.39161675314906, 73.45258623454897 35.54379584531787, -0.2920405613258481 37.152869995381934 M1.977995315566659 36.05468347359101 C-0.9317147157550789 27.96772748815657, 0.1582441308139823 15.546045169103959, -0.2455973830074072 0.768724849447608 M-0.05833957064896822 36.13339095905076 C0.6681113036465162 27.31720702718197, 0.3771225305389875 17.725042145911324, 0.4799795104190707 -0.9090525610372424" stroke="#000000" stroke-width="1" fill="none"></path></g><g transform="translate(50.718137100101046 15.077801691668839) rotate(0 73.5 10.5)"><text x="0" y="14" font-family="Virgil" font-size="15.451843604128287px" fill="#000000" text-anchor="start" style="white-space: pre;" direction="ltr">Frankfurt Hbf (tief)</text></g><g transform="translate(48.5 71.52338129496405) rotate(0 134.5 11)"><text x="0" y="15" font-family="Virgil" font-size="16px" fill="#000000" text-anchor="start" style="white-space: pre;" direction="ltr">Frankfurt(Main)Hbf Mannheimer Str.</text></g><g transform="translate(42 114.52338129496405) rotate(0 175.5 13.5)"><path d="M0.2450958530412674 1.077096555018425 C85.51643130072115 1.1003086992838123, 172.39819698765885 1.4139221826395252, 351.7878296386186 0.7973337613355638 M-0.03057509818353653 -0.3888972174918175 C121.73937971027364 1.1634033643499269, 242.3964362162894 0.9241758318029297, 350.7433637246039 -0.6178320432578087 M351.84323859214777 -0.029918432235717773 C350.6981932413577 10.862932193279264, 351.48238055825226 18.275558209419245, 350.45361304283136 28.35519051551818 M351.0103513002395 -0.3323861360549927 C350.2203839671611 8.685327851772307, 351.2767156016826 17.511513519287107, 351.23793995380396 26.599510073661797 M352.0316644063249 27.64300251208629 C248.40439663143556 29.44573668114933, 144.06790645830398 29.09428600083317, -0.28467931083202364 26.340478027387803 M350.59394636492067 26.700185887665647 C237.54254858625472 26.425153980885362, 124.61911472389743 27.452903752049306, 0.28982682345037464 27.192818773032467 M-1.2291033267974854 28.953312158584588 C0.33867021918296814 20.896463882923122, -0.3590760576725006 14.187515997886653, -0.5645296573638916 1.588909387588501 M0.5310193300247192 27.834079623222344 C0.02951731801033014 20.292843449115747, -0.8020905005931855 16.02101645469665, -0.15521037578582764 -0.16004955768585205" stroke="#000000" stroke-width="1" fill="none"></path></g><g transform="translate(46.5 118.52338129496405) rotate(0 170.5 11)"><text x="0" y="15" font-family="Virgil" font-size="16px" fill="#000000" text-anchor="start" style="white-space: pre;" direction="ltr">Frankfurt(Main) ZOB (Hbf/Pforzheimer Str)</text></g><g><g transform="translate(321 31.523381294964054) rotate(0 -15 20.5)"><path d="M0 0 C-5 6.833333333333333, -25 34.166666666666664, -30 41 M0 0 C-5 6.833333333333333, -25 34.166666666666664, -30 41" stroke="#000000" stroke-width="1" fill="none"></path></g><g transform="translate(321 31.523381294964054) rotate(0 -15 20.5)"><path d="M-22.916023626387584 16.605999124003844 C-25.68210889231404 26.131141902773624, -28.448194158240497 35.656284681543404, -30 41 M-22.916023626387584 16.605999124003844 C-25.53400658598907 25.621144748677224, -28.15198954559055 34.636290373350604, -30 41" stroke="#000000" stroke-width="1" fill="none"></path></g><g transform="translate(321 31.523381294964054) rotate(0 -15 20.5)"><path d="M-8.893197750035167 26.866603423773903 C-17.134785755879836 32.38528078309133, -25.376373761724505 37.90395814240876, -30 41 M-8.893197750035167 26.866603423773903 C-16.693512955477924 32.089798624660986, -24.493828160920682 37.31299382554807, -30 41" stroke="#000000" stroke-width="1" fill="none"></path></g></g><g><g transform="translate(291 75.52338129496405) rotate(0 16 -23)"><path d="M0 0 C5.333333333333333 -7.666666666666667, 26.666666666666668 -38.333333333333336, 32 -46 M0 0 C5.333333333333333 -7.666666666666667, 26.666666666666668 -38.333333333333336, 32 -46" stroke="#000000" stroke-width="1" fill="none"></path></g><g transform="translate(291 75.52338129496405) rotate(0 16 -23)"><path d="M24.83138136391585 -18.9147474287134 C27.017702765714077 -27.175344117681867, 29.204024167512305 -35.435940806650336, 32 -46 M24.83138136391585 -18.9147474287134 C26.636909723444663 -25.736590537551447, 28.442438082973474 -32.55843364638949, 32 -46" stroke="#000000" stroke-width="1" fill="none"></path></g><g transform="translate(291 75.52338129496405) rotate(0 16 -23)"><path d="M9.098454770935081 -29.859392015134798 C16.08308333194129 -34.78203589769771, 23.0677118929475 -39.70467978026063, 32 -46 M9.098454770935081 -29.859392015134798 C14.86656596323245 -33.924655762046896, 20.634677155529822 -37.98991950895899, 32 -46" stroke="#000000" stroke-width="1" fill="none"></path></g></g><g><g transform="translate(172 36.523381294964054) rotate(0 2 19)"><path d="M0 0 C0.6666666666666666 6.333333333333333, 3.3333333333333335 31.666666666666668, 4 38 M0 0 C0.6666666666666666 6.333333333333333, 3.3333333333333335 31.666666666666668, 4 38" stroke="#000000" stroke-width="1" fill="none"></path></g><g transform="translate(172 36.523381294964054) rotate(0 2 19)"><path d="M-4.3777679647595225 20.829880491719077 C-2.1014110541799957 25.495242478654166, 0.17494585639953097 30.160604465589255, 4 38 M-4.3777679647595225 20.829880491719077 C-2.4007914843665588 24.881666429954016, -0.42381500397359506 28.93345236818896, 4 38" stroke="#000000" stroke-width="1" fill="none"></path></g><g transform="translate(172 36.523381294964054) rotate(0 2 19)"><path d="M8.618997481615889 19.4617999184164 C7.36395116361637 24.49888856099139, 6.108904845616852 29.535977203566375, 4 38 M8.618997481615889 19.4617999184164 C7.5290115303982645 23.83642400734719, 6.439025579180641 28.211048096277985, 4 38" stroke="#000000" stroke-width="1" fill="none"></path></g></g><g><g transform="translate(176 70.52338129496405) rotate(0 -2.5 -21.5)"><path d="M0 0 C-0.8333333333333334 -7.166666666666667, -4.166666666666667 -35.833333333333336, -5 -43 M0 0 C-0.8333333333333334 -7.166666666666667, -4.166666666666667 -35.833333333333336, -5 -43" stroke="#000000" stroke-width="1" fill="none"></path></g><g transform="translate(176 70.52338129496405) rotate(0 -2.5 -21.5)"><path d="M4.702664633466648 -23.65165901141714 C1.4588877519668868 -30.12016055867873, -1.7848891295328748 -36.58866210594032, -5 -43 M4.702664633466648 -23.65165901141714 C2.681075566884985 -27.682963408365865, 0.6594865003033217 -31.714267805314584, -5 -43" stroke="#000000" stroke-width="1" fill="none"></path></g><g transform="translate(176 70.52338129496405) rotate(0 -2.5 -21.5)"><path d="M-10.004201529537106 -21.941558294788795 C-8.331206136509849 -28.98177754839074, -6.65821074348259 -36.02199680199268, -5 -43 M-10.004201529537106 -21.941558294788795 C-8.961556083028567 -26.329169030468936, -7.918910636520026 -30.716779766149077, -5 -43" stroke="#000000" stroke-width="1" fill="none"></path></g></g><g><g transform="translate(371 37.523381294964054) rotate(0 -1 42.5)"><path d="M0 0 C-0.3333333333333333 14.166666666666666, -1.6666666666666667 70.83333333333333, -2 85 M0 0 C-0.3333333333333333 14.166666666666666, -1.6666666666666667 70.83333333333333, -2 85" stroke="#000000" stroke-width="1" fill="none"></path></g><g transform="translate(371 37.523381294964054) rotate(0 -1 42.5)"><path d="M-11.594636274394672 56.575662632841016 C-9.285670830816107 63.41602748466336, -6.9767053872375415 70.2563923364857, -2 85 M-11.594636274394672 56.575662632841016 C-8.522523618592352 65.67686918837072, -5.450410962790032 74.77807574390043, -2 85" stroke="#000000" stroke-width="1" fill="none"></path></g><g transform="translate(371 37.523381294964054) rotate(0 -1 42.5)"><path d="M8.920894071412087 57.058380993918824 C6.292762446332489 63.78257885589039, 3.6646308212528913 70.50677671786195, -2 85 M8.920894071412087 57.058380993918824 C5.424126092932539 66.00502565217131, 1.9273581144529919 74.9516703104238, -2 85" stroke="#000000" stroke-width="1" fill="none"></path></g></g><g><g transform="translate(369 117.52338129496405) rotate(0 1.5 -42.5)"><path d="M0 0 C0.5 -14.166666666666666, 2.5 -70.83333333333333, 3 -85 M0 0 C0.5 -14.166666666666666, 2.5 -70.83333333333333, 3 -85" stroke="#000000" stroke-width="1" fill="none"></path></g><g transform="translate(369 117.52338129496405) rotate(0 1.5 -42.5)"><path d="M12.259870044316335 -56.464849627829665 C9.791294432584099 -64.0719948629929, 7.322718820851861 -71.67914009815613, 3 -85 M12.259870044316335 -56.464849627829665 C9.863825927797834 -63.848482317704786, 7.46778181127933 -71.2321150075799, 3 -85" stroke="#000000" stroke-width="1" fill="none"></path></g><g transform="translate(369 117.52338129496405) rotate(0 1.5 -42.5)"><path d="M-8.24856910832092 -57.18867689204039 C-5.249829035858511 -64.60285804423205, -2.2510889633961018 -72.0170391964237, 3 -85 M-8.24856910832092 -57.18867689204039 C-5.337937781719617 -64.38501515451128, -2.4273064551183143 -71.58135341698218, 3 -85" stroke="#000000" stroke-width="1" fill="none"></path></g></g><g><g transform="translate(196 22.523381294964054) rotate(0 18 -2.5)"><path d="M0 0 C6 -0.8333333333333334, 30 -4.166666666666667, 36 -5 M0 0 C6 -0.8333333333333334, 30 -4.166666666666667, 36 -5" stroke="#000000" stroke-width="1" fill="none"></path></g><g transform="translate(196 22.523381294964054) rotate(0 18 -2.5)"><path d="M19.94058318416782 3.5055941318268076 C23.964660545578646 1.3743107120272704, 27.988737906989467 -0.7569727077722668, 36 -5 M19.94058318416782 3.5055941318268076 C24.019737596042965 1.3451400987603042, 28.09889200791811 -0.8153139343061993, 36 -5" stroke="#000000" stroke-width="1" fill="none"></path></g><g transform="translate(196 22.523381294964054) rotate(0 18 -2.5)"><path d="M18.230482467539474 -8.807131027897267 C22.683067143906612 -7.853161780011335, 27.13565182027375 -6.8991925321254035, 36 -5 M18.230482467539474 -8.807131027897267 C22.744009121133153 -7.8401049205903215, 27.257535774726833 -6.873078813283376, 36 -5" stroke="#000000" stroke-width="1" fill="none"></path></g></g><g><g transform="translate(229 16.523381294964054) rotate(0 -16 3)"><path d="M0 0 C-5.333333333333333 1, -26.666666666666668 5, -32 6 M0 0 C-5.333333333333333 1, -26.666666666666668 5, -32 6" stroke="#000000" stroke-width="1" fill="none"></path></g><g transform="translate(229 16.523381294964054) rotate(0 -16 3)"><path d="M-17.990978497402473 -2.291400155568425 C-20.866310969107403 -0.5896016324678126, -23.741643440812332 1.1121968906328, -32 6 M-17.990978497402473 -2.291400155568425 C-21.02667725531824 -0.4946870054762029, -24.062376013234008 1.3020261446160193, -32 6" stroke="#000000" stroke-width="1" fill="none"></path></g><g transform="translate(229 16.523381294964054) rotate(0 -16 3)"><path d="M-15.938857637448457 8.653244430852974 C-19.2353851043495 8.108669646240982, -22.531912571250544 7.5640948616289885, -32 6 M-15.938857637448457 8.653244430852974 C-19.41924275297317 8.07829700703084, -22.89962786849788 7.50334958320871, -32 6" stroke="#000000" stroke-width="1" fill="none"></path></g></g><g><g transform="translate(48 37.523381294964054) rotate(0 -17.195750000000004 39.288000000000004)"><path d="M0 0 C0.16666666666666666 -0.3333333333333333, 7.333333333333333 -8.333333333333332, 1 -2 C-5.333333333333333 4.333333333333333, -37 23.833333333333336, -38 38 C-39 52.166666666666664, -10.5 75.5, -5 83 M0 0 C0.16666666666666666 -0.3333333333333333, 7.333333333333333 -8.333333333333332, 1 -2 C-5.333333333333333 4.333333333333333, -37 23.833333333333336, -38 38 C-39 52.166666666666664, -10.5 75.5, -5 83" stroke="#000000" stroke-width="1" fill="none"></path></g><g transform="translate(48 37.523381294964054) rotate(0 -17.195750000000004 39.288000000000004)"><path d="M-31.793651545947096 69.50554792389232 C-23.952641557563172 73.45462270136638, -16.11163156917925 77.40369747884044, -5 83 M-31.793651545947096 69.50554792389232 C-22.655412405215202 74.10796390788578, -13.517173264483308 78.71037989187924, -5 83" stroke="#000000" stroke-width="1" fill="none"></path></g><g transform="translate(48 37.523381294964054) rotate(0 -17.195750000000004 39.288000000000004)"><path d="M-16.85106128360817 55.44002274216897 C-13.382915490252216 63.505293598875866, -9.914769696896263 71.57056445558277, -5 83 M-16.85106128360817 55.44002274216897 C-12.809139939092438 64.83962482564415, -8.767218594576704 74.23922690911934, -5 83" stroke="#000000" stroke-width="1" fill="none"></path></g></g><g><g transform="translate(42 123.52338129496405) rotate(0 -10.5 -44.5)"><path d="M0 0 C-5 -8, -31.5 -33.166666666666664, -30 -48 C-28.5 -62.833333333333336, 2.5 -82.16666666666667, 9 -89 M0 0 C-5 -8, -31.5 -33.166666666666664, -30 -48 C-28.5 -62.833333333333336, 2.5 -82.16666666666667, 9 -89" stroke="#000000" stroke-width="1" fill="none"></path></g><g transform="translate(42 123.52338129496405) rotate(0 -10.5 -44.5)"><path d="M-6.236598888418072 -63.15728237368491 C-2.605040942052253 -69.3167492756371, 1.0265170043135665 -75.47621617758928, 9 -89 M-6.236598888418072 -63.15728237368491 C-1.8694916808289097 -70.56431062428484, 2.497615526760253 -77.97133887488476, 9 -89" stroke="#000000" stroke-width="1" fill="none"></path></g><g transform="translate(42 123.52338129496405) rotate(0 -10.5 -44.5)"><path d="M-19.283290601328737 -78.9972267465073 C-12.542126809801434 -81.3813316875404, -5.80096301827413 -83.76543662857348, 9 -89 M-19.283290601328737 -78.9972267465073 C-11.176746408366425 -81.86421717469356, -3.0702022154041124 -84.73120760287982, 9 -89" stroke="#000000" stroke-width="1" fill="none"></path></g></g><g><g transform="translate(194 84.52338129496405) rotate(0 -1 20.5)"><path d="M0 0 C-0.3333333333333333 6.833333333333333, -1.6666666666666667 34.166666666666664, -2 41 M0 0 C-0.3333333333333333 6.833333333333333, -1.6666666666666667 34.166666666666664, -2 41" stroke="#000000" stroke-width="1" fill="none"></path></g><g transform="translate(194 84.52338129496405) rotate(0 -1 20.5)"><path d="M-8.071720317390302 21.394281130563208 C-6.112517820856116 27.72058921911787, -4.15331532432193 34.04689730767254, -2 41 M-8.071720317390302 21.394281130563208 C-6.751582603294314 25.657034936494664, -5.4314448891983265 29.91978874242612, -2 41" stroke="#000000" stroke-width="1" fill="none"></path></g><g transform="translate(194 84.52338129496405) rotate(0 -1 20.5)"><path d="M5.951105558962117 22.078321417214546 C3.3854692899942873 28.1839056635496, 0.8198330210264579 34.28948990988465, -2 41 M5.951105558962117 22.078321417214546 C4.222344389400259 26.192348448333426, 2.493583219838402 30.306375479452306, -2 41" stroke="#000000" stroke-width="1" fill="none"></path></g></g><g><g transform="translate(194 117.52338129496405) rotate(0 1.5 -21)"><path d="M0 0 C0.5 -7, 2.5 -35, 3 -42 M0 0 C0.5 -7, 2.5 -35, 3 -42" stroke="#000000" stroke-width="1" fill="none"></path></g><g transform="translate(194 117.52338129496405) rotate(0 1.5 -21)"><path d="M8.77288407866018 -21.753424748507424 C7.042575865501518 -27.821936599541026, 5.312267652342856 -33.89044845057463, 3 -42 M8.77288407866018 -21.753424748507424 C6.929902263112044 -28.217103822466573, 5.086920447563908 -34.680782896425725, 3 -42" stroke="#000000" stroke-width="1" fill="none"></path></g><g transform="translate(194 117.52338129496405) rotate(0 1.5 -21)"><path d="M-5.591961941017903 -22.779485178484432 C-3.0166907055108987 -28.54045564032763, -0.44141947000389425 -34.30142610217083, 3 -42 M-5.591961941017903 -22.779485178484432 C-2.848995097856773 -28.915596491107205, -0.10602825469564259 -35.051707803729975, 3 -42" stroke="#000000" stroke-width="1" fill="none"></path></g></g></svg>