<svg version="1.1" xmlns="http://www.w3.org/2000/svg" viewBox="0 0 728.111111111111 301.1951119058821">
  <!-- svg-source:excalidraw -->
  <defs>
    <style>
      @font-face {
        font-family: "Virgil";
        src: url("https://excalidraw.com/FG_Virgil.woff2");
      }
      @font-face {
        font-family: "Cascadia";
        src: url("https://excalidraw.com/Cascadia.woff2");
      }
    </style>
  </defs>
  <rect x="0" y="0" width="728.111111111111" height="301.1951119058821" fill="#ffffff"></rect><g transform="translate(259.111111111111 81.74561695638715) rotate(0 67.5 34)"><path d="M-0.04589104652404785 0.7932932376861572 C49.173695027828224 1.6208415806293488, 97.7445994615555 1.0652919590473175, 135.57717871665955 0.9938318729400635 M-0.3099764585494995 -0.8736306428909302 C49.96902316808701 0.8036800801753998, 97.91025424003602 0.9172092854976654, 135.09095203876495 0.3458632230758667 M134.4571225643158 -1.2366979122161865 C134.43620649814605 15.751078319549562, 135.77141920566558 30.51644244194031, 134.9705731868744 67.53830361366272 M134.66806995868683 -0.5950242280960083 C135.00968541145323 26.31701490879059, 134.60886372566222 51.59611947536469, 134.39919865131378 68.71809756755829 M133.67278265953064 69.89175820350647 C105.17651277780533 66.96106616854668, 73.95343625545502 66.30151264071465, -0.5874483585357666 67.28028512001038 M135.54955875873566 67.75084292888641 C104.59858113527298 67.22508745789528, 72.4738974571228 66.95702486634255, 0.5054188966751099 67.07556140422821 M-1.5004732608795166 66.65522408485413 C-1.092914433479309 44.32059116363526, 1.5884896802902222 23.091671133041388, 1.5515515804290771 -1.0536611080169678 M0.44777119159698486 68.36318957805634 C-1.0937606430053712 52.84648582935333, -0.9215842819213867 35.907785010337825, 0.647894024848938 0.4924734830856323" stroke="#000000" stroke-width="1" fill="none"></path></g><g transform="translate(265.611111111111 90.74561695638715) rotate(0 57.5 27)"><text x="57.5" y="18" font-family="Virgil" font-size="20px" fill="#000000" text-anchor="middle" style="white-space: pre;" direction="ltr">München Hbf</text><text x="57.5" y="45" font-family="Virgil" font-size="20px" fill="#000000" text-anchor="middle" style="white-space: pre;" direction="ltr">8000261</text></g><g transform="translate(437.111111111111 88.74561695638715) rotate(0 133.5 26.5)"><path d="M-0.6307762581396102 -0.963355057128334 C104.30212467610494 1.0783208490532445, 206.69480330038854 1.6687808406364963, 267.8423575797083 1.0112580988714217 M-0.5610504543911934 0.3133464827038765 C77.23078700169324 -2.8085485290901744, 155.70613074869567 -2.2329647589150037, 267.2400552686282 -0.2786080473956108 M266.67203164100647 0.6393430233001709 C268.6784365618229 13.52835682630539, 268.05013303399085 26.44837648868561, 268.1543085575104 52.628379583358765 M266.2122687101364 -0.5770930051803589 C265.91146969676015 20.05808848142624, 266.3777821052074 39.32815766334534, 267.7401121854782 52.955305218696594 M267.6142795750757 52.25675408016415 C172.34273192538927 55.02205394047555, 77.15451757824191 55.03553185119942, 0.12936948675174711 54.471166993585776 M266.9233303808566 52.35350392938967 C212.8597775986308 51.63419384359723, 158.069416001073 52.00250286357709, 0.579516988836956 53.30754574870424 M-0.7519643306732178 54.92979407310486 C0.5772044026851655 36.092926418781275, -0.43635303139686576 16.7089396238327, 1.0745508670806885 1.6449048519134521 M-0.5660897493362427 53.2817097902298 C0.7065852558612824 33.55519300699234, 0.18193086743354803 14.877626419067383, -0.7611466646194458 0.6893521547317505" stroke="#000000" stroke-width="1" fill="none"></path></g><g transform="translate(436.611111111111 92.24561695638715) rotate(0 130 26.194029850746276)"><text x="129.99999999999997" y="16.805970149253724" font-family="Virgil" font-size="18.821680575539588px" fill="#000000" text-anchor="middle" style="white-space: pre;" direction="ltr">München Hauptbahnhof Nord</text><text x="129.99999999999997" y="43" font-family="Virgil" font-size="18.821680575539588px" fill="#000000" text-anchor="middle" style="white-space: pre;" direction="ltr">8070193</text></g><g transform="translate(424.111111111111 156.74561695638715) rotate(0 147 32)"><path d="M-1.3503434723345755 -1.4221514623013496 C112.93617655827303 1.4938671355070676, 228.60203833077517 0.6181060327635375, 293.6499843843823 0.9736121200930594 M0.04030859241042137 -0.20972215654997822 C92.07590515401931 -2.1543642335040096, 184.2623927376497 -2.617157001492596, 293.9767124045549 -0.25378213082823753 M292.1755259037018 -1.1891024112701416 C295.41066849708557 24.18053336143494, 292.96742356300354 51.25304999351502, 293.7129786014557 65.19007086753845 M294.38618075847626 -0.6686075925827026 C293.16067668437955 25.665324902534486, 294.0383660459518 49.923207592964175, 294.39815509319305 63.34450352191925 M294.1901989682965 63.91702904169645 C190.0137611437619 62.77258956400625, 87.46055866737183 64.53501688958303, 0.5753487556775092 64.1928781090518 M293.7272471495851 64.67124482255464 C178.1607495686311 65.43702028058148, 62.53028435657364 65.23173125312024, 0.21223010733504294 64.4705775698584 M1.6509439945220947 64.71755957603455 C1.4497168064117432 42.82210898399353, 0.8399679660797119 21.051414251327515, -1.811115026473999 -0.33344292640686035 M-0.3809472322463989 63.296152234077454 C1.203456072807312 44.14763691425323, 1.2308036375045777 23.837134289741513, 0.33000171184539795 -0.48736751079559326" stroke="#000000" stroke-width="1" fill="none"></path></g><g transform="translate(430.111111111111 169.74561695638715) rotate(0 140 27)"><text x="140" y="18" font-family="Virgil" font-size="20px" fill="#000000" text-anchor="middle" style="white-space: pre;" direction="ltr">München ZOB (Hackerbrücke)</text><text x="140" y="45" font-family="Virgil" font-size="20px" fill="#000000" text-anchor="middle" style="white-space: pre;" direction="ltr">8089317</text></g><g transform="translate(189.11111111111097 183.74561695638715) rotate(0 107.5 38)"><path d="M0.09315356534481047 -0.7403272406530379 C66.83041934978772 0.8398249727769134, 130.22181442231656 1.8718115633225674, 214.7200528264227 -0.2624477502660751 M-0.6617330594897269 -0.788682628612995 C76.06319547987415 0.5626865916114567, 152.55218491425757 0.6731762389655827, 215.85730182974672 0.14091170407438275 M213.02764534950256 0.46866583824157715 C213.65879282474518 23.119174575805665, 215.06491312503815 44.027251672744754, 215.86319375038147 75.22552466392517 M214.62485492229462 -0.628045916557312 C215.01246530532836 19.51063907146454, 214.50648767471313 39.60843050479889, 215.6108282804489 75.29192554950714 M215.25791841904353 76.87838965076541 C138.53240652455426 75.52956810634029, 64.4354421056509 73.50128885899532, 0.37741666254329675 77.36267762748051 M215.85704482274295 75.98453462440824 C139.9344633263173 76.88243295817091, 64.17925013116121 77.64466566509536, 0.11666104889345168 76.02569913580656 M1.384411096572876 74.90804266929626 C-2.08783043384552 56.53166723251343, -1.5513390398025513 32.33473515510559, -0.8889272212982178 -1.4058992862701416 M0.5068968534469604 76.41801273822784 C-0.849065580368042 53.37309758663177, -1.7288225078582764 32.45135138034821, -0.3784676790237427 0.9866658449172974" stroke="#000000" stroke-width="1" fill="none"></path></g><g transform="translate(191.61111111111097 200.74561695638715) rotate(0 102.5 27)"><text x="102.5" y="18" font-family="Virgil" font-size="20px" fill="#000000" text-anchor="middle" style="white-space: pre;" direction="ltr">München Hbf Gl.27-36</text><text x="102.5" y="45" font-family="Virgil" font-size="20px" fill="#000000" text-anchor="middle" style="white-space: pre;" direction="ltr">8098261</text></g><g transform="translate(14.999999999999943 111.33652604729625) rotate(0 95 27)"><text x="95" y="18" font-family="Virgil" font-size="20px" fill="#000000" text-anchor="middle" style="white-space: pre;" direction="ltr">München Hbf Gl.5-10</text><text x="95" y="45" font-family="Virgil" font-size="20px" fill="#000000" text-anchor="middle" style="white-space: pre;" direction="ltr">8098262</text></g><g transform="translate(10 106.01329372406391) rotate(0 102.02020202020205 30.303030303030326)"><path d="M-0.12731573031273752 -0.17017065342708065 C52.54086428642125 -1.3976572526483044, 106.4509873435938 0.7485312674142286, 202.43564359247745 -1.666083685569026 M-0.17096980414509771 0.6491441119873522 C63.28552822779442 -1.2514173629320584, 127.26028396572205 -1.607641164722469, 204.30072389949822 -0.19272821312819824 M205.77026982981755 -1.6484792232513428 C202.12370423355495 23.79434473586807, 204.37957123794948 48.35069408561248, 203.79568334300114 59.693276268063215 M203.35133822638585 0.10409152507781982 C204.67938018447228 14.594204147656772, 203.44518447524376 29.845913449923223, 203.2073448487003 60.00581787210527 M205.41730867633282 61.008407703002554 C148.39460003642156 62.3617646527924, 94.77714874092617 63.647425124115586, 1.6366536426578433 61.843727524642574 M203.18372820692468 61.42069035704586 C143.72339326091634 59.7950295399462, 82.02483489163473 58.923492058690236, 0.03540849954850023 60.149426311715466 M0.44072699546813965 58.93885884862962 C-1.5014474391937256 47.6055259487846, 0.20998597145080566 34.213843439564585, -0.6671602725982666 -0.493518590927124 M0.9868756532669067 60.080719452915815 C-0.24083676121451603 38.425066770929305, 0.6682780764319683 15.991948268630296, 0.022813916206359863 -0.7494508028030396" stroke="#000000" stroke-width="1" fill="none"></path></g><g transform="translate(32.11111111111097 18.745616956387146) rotate(0 88 27)"><text x="88" y="18" font-family="Virgil" font-size="20px" fill="#000000" text-anchor="middle" style="white-space: pre;" direction="ltr">München Hbf (tief)</text><text x="88" y="45" font-family="Virgil" font-size="20px" fill="#000000" text-anchor="middle" style="white-space: pre;" direction="ltr">8098263</text></g><g transform="translate(15.111111111110972 13.745616956387146) rotate(0 102 31.5)"><path d="M1.3459341023287772 1.168103112409687 C79.71975997836027 0.5610915721501826, 158.09729342655973 -2.151753977010584, 202.480941786481 -0.2636535756976128 M0.7454570302267551 -0.22821152430253028 C73.0337510335608 -0.9785839330771753, 145.0462670953421 -0.9959802160895654, 203.4731157222571 -0.7863749280272007 M205.00257515907288 -0.6944963932037354 C203.639073857069 13.264833223819734, 203.39431525111198 28.403606200218203, 204.38548684120178 62.83531165122986 M204.90875232219696 0.38334476947784424 C204.89998229622842 13.258360970020295, 203.66085036873818 26.756546115875246, 204.94526278972626 63.7801228761673 M203.14915670046722 62.616525052454854 C155.4460514273471 63.57256825445374, 111.16634382014495 61.11314616759766, -0.39341476791963575 64.17830575126162 M203.75877257163606 63.85825024410262 C150.63655527275452 63.32384148612946, 95.41705163544525 62.95291729227723, -0.09356859600157737 62.90948320785842 M-1.3818700313568115 62.75171637535095 C-1.4939609992504121 38.84869703054428, 0.11040148854255671 15.046996045112607, 1.0484049320220947 -0.4455263614654541 M0.2473372220993042 62.215047955513 C-0.8807312071323395 37.25891221761704, -0.6030174314975739 13.590007925033568, 0.08438479900360107 -0.6613672971725464" stroke="#000000" stroke-width="1" fill="none"></path></g><g transform="translate(459.5303030303029 233.89208160285182) rotate(0 104.5 27)"><text x="104.5" y="18" font-family="Virgil" font-size="20px" fill="#000000" text-anchor="middle" style="white-space: pre;" direction="ltr">München Hackerbrücke</text><text x="104.5" y="45" font-family="Virgil" font-size="20px" fill="#000000" text-anchor="middle" style="white-space: pre;" direction="ltr">8004129</text></g><g transform="translate(439.78787878787864 234.62945534022555) rotate(0 122.22222222222223 28.282828282828262)"><path d="M0.7946188301711081 -0.7753848104338645 C64.13795548556492 0.4301223635206224, 126.14264217367358 0.615833834025383, 246.0196714761384 -0.6247451020445823 M0.7664779509766101 0.2577595919501781 C91.58838679863881 -0.18491680260062218, 183.65226197759984 -0.9026875719106197, 244.10073351597313 -0.7115562394173145 M245.96105768945483 0.43794989585876465 C244.17371803582319 15.274308033663809, 242.10474067986615 30.915109530843853, 243.87131312158374 54.94357075594888 M244.82371678617267 -0.14479243755340576 C244.7173791040074 17.926685529525823, 244.10910655151716 35.80883244191755, 244.75280537870196 57.45631410979257 M244.44045291276865 55.49783904236255 C149.44678795986576 55.17663539788805, 52.97252250842767 55.390172398666245, 1.164157750901699 57.796690341572145 M244.3535419427996 55.759927667112926 C192.87649620100458 55.33532252588187, 142.6091553061334 54.393939342997655, -0.19796085130763053 56.39098309502278 M-0.6256444454193115 56.08263173006998 C-0.36609721183776833 33.560405357919535, -0.3359534740447996 14.764497345144086, 1.0819742679595947 -0.0201113224029541 M0.4092634916305542 56.123661064138275 C0.42826502852969695 37.12687016857992, -0.7881618208355374 16.604810718334065, -0.23611080646514893 0.6952611207962036" stroke="#000000" stroke-width="1" fill="none"></path></g><g><g transform="translate(387.2626262626261 124.52844523921544) rotate(0 31.201557373048814 1.1243285792054465)"><path d="M0.3660714626312256 -0.5644273281097412 C10.384453643612597 -0.5593812979431713, 50.7293004217373 1.0545970732113896, 60.94460643084367 1.1697505252529594 M-0.9008797488268465 1.7536443792935463 C9.437717646943437 2.487323485114623, 53.00149356712603 2.919918132950607, 63.30399449492452 2.7909917719290323" stroke="#000000" stroke-width="1" fill="none"></path></g><g transform="translate(387.2626262626261 124.52844523921544) rotate(0 31.201557373048814 1.1243285792054465)"><path d="M34.15474947682071 11.88342628084631 C45.68836731736422 9.212721333154258, 54.37339487025842 5.663469599941008, 61.904809075841875 2.7116272337362832 M35.14585968247104 13.764163227905941 C44.30186759334478 8.865998391992736, 55.12144809572007 5.170757236005242, 63.026561218748064 2.809317458383805" stroke="#000000" stroke-width="1" fill="none"></path></g><g transform="translate(387.2626262626261 124.52844523921544) rotate(0 31.201557373048814 1.1243285792054465)"><path d="M34.19034264645765 -8.637751451245839 C45.90566917757185 -3.7252367959390917, 54.577544124873526 0.30862249348255144, 61.904809075841875 2.7116272337362832 M35.18145285210798 -6.757014504186207 C44.28060884929451 -4.478186919000696, 55.08774174949837 -0.9967855027263344, 63.026561218748064 2.809317458383805" stroke="#000000" stroke-width="1" fill="none"></path></g></g><g><g transform="translate(388.27272727272714 138.6698593806296) rotate(0 21.37682462061497 14.088736452526746)"><path d="M-0.22889113426208496 0.7960580348968505 C7.249440650586731 5.332136054472486, 36.96872024359528 23.407336499474248, 44.561846950319094 28.009088347174885 M-1.8081977090891452 0.16838455787859852 C5.549348085104249 4.293907649568702, 35.86923505808573 21.857946768102472, 43.67543780227607 26.273103162481174" stroke="#000000" stroke-width="1" fill="none"></path></g><g transform="translate(388.27272727272714 138.6698593806296) rotate(0 21.37682462061497 14.088736452526746)"><path d="M19.311316946318666 22.023997261945407 C26.288738649649723 24.57233482388446, 33.99876474390895 23.782362281568556, 44.10679256339973 28.198777362539158 M17.000010588934938 20.9548199920098 C24.38374437908911 22.89570505399455, 28.259328194207313 24.55599122425374, 43.31187796016639 26.87596468610941" stroke="#000000" stroke-width="1" fill="none"></path></g><g transform="translate(388.27272727272714 138.6698593806296) rotate(0 21.37682462061497 14.088736452526746)"><path d="M28.17888949584484 6.550095404066898 C32.82595442607952 13.326340427095765, 38.1034160168651 16.781189585361442, 44.10679256339973 28.198777362539158 M25.86758313846111 5.48091813413129 C31.40851269662467 10.724872495363613, 33.41334419214753 15.649618880877963, 43.31187796016639 26.87596468610941" stroke="#000000" stroke-width="1" fill="none"></path></g></g><g><g transform="translate(371.10101010100993 136.64965736042757) rotate(0 -2.977732108687377 29.614068359702742)"><path d="M-0.9808503627777099 0.5721383571624756 C-2.1456037262874776 10.343673158093328, -5.361360039213268 49.69527104101595, -6.1800684808480355 59.4012296700718 M0.7050644674245268 -0.17309295066632324 C-0.6105188320531632 9.196602742691496, -5.536258585318518 47.637551994458626, -6.66052868479926 57.706724740505045" stroke="#000000" stroke-width="1" fill="none"></path></g><g transform="translate(371.10101010100993 136.64965736042757) rotate(0 -2.977732108687377 29.614068359702742)"><path d="M-12.390407519618133 30.452541631844646 C-9.344826890383816 41.543169989950016, -7.878423236868166 48.94611289693783, -6.556474949066228 56.484602309703654 M-12.407295542040924 29.2508112613231 C-11.010222807950173 36.749003357233896, -9.83981141092137 43.75855263589337, -6.399256373588628 57.58245918893797" stroke="#000000" stroke-width="1" fill="none"></path></g><g transform="translate(371.10101010100993 136.64965736042757) rotate(0 -2.977732108687377 29.614068359702742)"><path d="M7.646024685472774 32.88005809877482 C3.3151842349718947 42.915114517243445, -2.5792157465696945 49.42625833290397, -6.556474949066228 56.484602309703654 M7.629136663049984 31.678327728253272 C4.084472024888727 38.524214701917614, 0.31776348045663916 44.93560659235403, -6.399256373588628 57.58245918893797" stroke="#000000" stroke-width="1" fill="none"></path></g></g><g><g transform="translate(269.08080808080797 135.63955635032653) rotate(0 -35.333721850075364 6.762987507172568)"><path d="M-0.7274847507476807 0.38359665870666504 C-12.53625643261354 2.753620099700265, -59.36882393400275 11.839275692287949, -71.12285928774361 13.986594055156548 M1.0914470257703215 -0.46061904081143434 C-10.79969855263475 1.5990445559147977, -59.614812742044194 9.793522724012028, -71.75889072592106 12.313041791395609" stroke="#000000" stroke-width="1" fill="none"></path></g><g transform="translate(269.08080808080797 135.63955635032653) rotate(0 -35.333721850075364 6.762987507172568)"><path d="M-45.261671459310584 -1.9072707069412438 C-51.68020568296211 1.9419554970508295, -60.05375539523492 6.397404772953447, -72.70718655760136 13.124950751738016 M-45.48431018554502 -2.901224769403097 C-52.98097638972761 2.3413625601654733, -61.17549981101234 4.798004206694183, -71.79881713564244 13.025318130926554" stroke="#000000" stroke-width="1" fill="none"></path></g><g transform="translate(269.08080808080797 135.63955635032653) rotate(0 -35.333721850075364 6.762987507172568)"><path d="M-41.53393374245324 18.27252051844458 C-48.9475696384491 16.499641149401874, -58.35549536843163 15.355583788468056, -72.70718655760136 13.124950751738016 M-41.75657246868768 17.278566455982727 C-50.26201441521267 16.80452051981441, -59.5110076060475 13.55287971214166, -71.79881713564244 13.025318130926554" stroke="#000000" stroke-width="1" fill="none"></path></g></g><g><g transform="translate(271.10101010100993 88.16480887557907) rotate(0 -33.18689129718422 -17.266945451197003)"><path d="M-0.7388123989105224 0.7866921901702881 C-11.832026476330222 -5.197850384214512, -56.36641080114574 -29.454839346304492, -67.44795495669044 -35.32058309256429 M1.0741723623219879 0.15410164467059073 C-9.557667061221883 -5.674523689630991, -53.58572867403321 -27.69788149772021, -65.14617677258013 -33.765857904333195" stroke="#000000" stroke-width="1" fill="none"></path></g><g transform="translate(271.10101010100993 88.16480887557907) rotate(0 -33.18689129718422 -17.266945451197003)"><path d="M-34.06522906891129 -31.358643651241366 C-42.065907204028704 -32.0135751373446, -47.270862616977254 -31.540152489409053, -66.65377159641741 -34.875599353689275 M-35.721895228541115 -30.29083514236838 C-43.55172797616623 -30.772777029426372, -51.540175873819095 -31.875563615404275, -64.63169248627185 -33.09487351693543" stroke="#000000" stroke-width="1" fill="none"></path></g><g transform="translate(271.10101010100993 88.16480887557907) rotate(0 -33.18689129718422 -17.266945451197003)"><path d="M-43.41436936468672 -13.090814603548054 C-49.39197442228445 -17.815694244984343, -52.48454650550321 -21.469780258795794, -66.65377159641741 -34.875599353689275 M-45.07103552431654 -12.023006094675068 C-50.12368265880207 -17.601487039184423, -55.461416426975035 -23.88365815033891, -64.63169248627185 -33.09487351693543" stroke="#000000" stroke-width="1" fill="none"></path></g></g><g><g transform="translate(446.8585858585857 129.57895028972047) rotate(0 -34.177941550741366 -3.3396640002125295)"><path d="M1.109207010269165 0.9315927028656004 C-10.48447693510088 -0.4581881264644798, -56.834119637967774 -6.349313702085582, -68.57550866146282 -7.610920703290662 M0.2324019613210111 0.3750749265309423 C-11.595886334079456 -0.9212862213096704, -57.68514626634841 -4.835692264023764, -69.46509011175193 -6.357107609175777" stroke="#000000" stroke-width="1" fill="none"></path></g><g transform="translate(446.8585858585857 129.57895028972047) rotate(0 -34.177941550741366 -3.3396640002125295)"><path d="M-38.80886042278125 -13.450375026673354 C-52.34158621242494 -11.67195529731294, -61.84399327546794 -7.764357955395895, -67.93089111234703 -5.037207334899044 M-41.295429231336854 -14.613332814187087 C-50.43724720824204 -11.44905469424964, -61.245089776289575 -8.79602736178595, -70.41962285425224 -6.607120841406918" stroke="#000000" stroke-width="1" fill="none"></path></g><g transform="translate(446.8585858585857 129.57895028972047) rotate(0 -34.177941550741366 -3.3396640002125295)"><path d="M-40.93903774649206 6.95997398933781 C-53.781357835780554 0.9175365748055064, -62.46957650841016 -2.976033163665363, -67.93089111234703 -5.037207334899044 M-43.425606555047665 5.797016201824077 C-51.8589256371641 1.9299234756609254, -61.93120310539739 -2.4648851837883177, -70.41962285425224 -6.607120841406918" stroke="#000000" stroke-width="1" fill="none"></path></g></g><g><g transform="translate(452.9191919191918 123.5183442291144) rotate(0 -36.156447988425896 34.485615338537386)"><path d="M-0.19705109596252446 -0.6534532070159912 C-11.963000512203383 10.61776364596204, -59.3754019979676 57.04759718336245, -71.35692758608346 68.64142145821548 M-1.7596416506823154 1.6178799139615148 C-13.58548327400926 13.52236851446905, -60.23484428959058 58.25873825042587, -72.11584488088933 69.62468388409076" stroke="#000000" stroke-width="1" fill="none"></path></g><g transform="translate(452.9191919191918 123.5183442291144) rotate(0 -36.156447988425896 34.485615338537386)"><path d="M-59.95776271019076 43.30832156311184 C-63.534252134335205 48.43864738742376, -66.2212718920077 53.563626681812416, -73.10676613981572 68.86459424824176 M-59.2816854635248 42.233095375405846 C-63.80587640786774 53.88320118697701, -69.34989576841755 64.42015997343326, -72.0256328933939 70.24753227562366" stroke="#000000" stroke-width="1" fill="none"></path></g><g transform="translate(452.9191919191918 123.5183442291144) rotate(0 -36.156447988425896 34.485615338537386)"><path d="M-45.7552462047903 58.12076657734455 C-52.816720836980835 59.72367818899481, -58.86354578787268 61.34456511607861, -73.10676613981572 68.86459424824176 M-45.07916895812435 57.04554038963855 C-55.17658312296949 63.0581960392757, -66.19793642988107 67.88259621865525, -72.0256328933939 70.24753227562366" stroke="#000000" stroke-width="1" fill="none"></path></g></g><g><g transform="translate(449.8888888888888 95.23551594628614) rotate(0 -121.44788325782162 -9.332457505598988)"><path d="M0.6451791286468505 1.0417189121246337 C0.7635277711180983 0.5130127063905348, 21.846756414773015 3.08596821874882, 1.0237081782985569 -3.798686962416679 C-19.799340058175904 -10.683342143582177, -81.94865149632858 -44.678938195039144, -124.2931102901999 -40.26621217486836 C-166.63756908407123 -35.85348615469757, -231.61820532625376 11.923154319255847, -253.0430445849294 22.67766915860803 M-0.47524055815301836 0.5430173956509678 C-0.5411640055803567 0.20625969525887555, 20.329553350444957 4.426850038986084, 0.08280647797510932 -2.664663275555059 C-20.16394039449474 -9.756176590096203, -79.85230682335626 -46.36522914738822, -121.95572179297211 -42.00606249159589 C-164.05913676258797 -37.64689583580356, -230.5387661687734 12.900725054388166, -252.53768333972005 23.490336659198935" stroke="#000000" stroke-width="1" fill="none"></path></g><g transform="translate(449.8888888888888 95.23551594628614) rotate(0 -121.44788325782162 -9.332457505598988)"><path d="M-231.92060064992853 0.1996671566535504 C-241.21685554456178 6.11381469682343, -244.18071174159962 16.305599689187694, -253.46210679591206 24.64568281436556 M-232.76541268548914 0.27789861054911924 C-241.8100132533498 10.180034114131562, -248.09658322680542 18.48332992054428, -253.3496167379668 22.65326988959902" stroke="#000000" stroke-width="1" fill="none"></path></g><g transform="translate(449.8888888888888 95.23551594628614) rotate(0 -121.44788325782162 -9.332457505598988)"><path d="M-221.35235718880716 17.79035311633987 C-234.00345225647058 18.024387764666056, -240.41397929683015 22.479239780956842, -253.46210679591206 24.64568281436556 M-222.19716922436777 17.868584570235438 C-235.3931626820148 21.04320920849146, -245.756039457412 22.561552237077116, -253.3496167379668 22.65326988959902" stroke="#000000" stroke-width="1" fill="none"></path></g></g><g><g transform="translate(477.16161616161605 92.20521291598311) rotate(0 -128.25731622876643 -37.91234099266837)"><path d="M0.8279504299163818 1.1952024936676027 C0.8193947755126297 0.46918183480850373, 22.797139050743723 9.249960204647845, 1.0296728389430883 -3.8785529902487097 C-20.737793372857546 -17.007066185145266, -85.08880656158891 -68.19634926969354, -129.77684684088743 -77.57587667571173 C-174.46488712018595 -86.95540408172991, -244.16953677119633 -63.092647400127106, -267.09856883684796 -60.15571742635784 M-0.1965143237169833 0.7770798575039954 C-0.45596682387869664 0.13941761609627823, 21.77020000161341 10.035119635663916, 0.09190258545801955 -2.786458967998907 C-21.586394830697373 -15.60803757166173, -85.73791198474694 -66.81423053118569, -130.26629882064935 -76.15239176447295 C-174.79468565655176 -85.49055299776022, -244.53591025867442 -61.63726145655972, -267.07841842995646 -58.815426367722495" stroke="#000000" stroke-width="1" fill="none"></path></g><g transform="translate(477.16161616161605 92.20521291598311) rotate(0 -128.25731622876643 -37.91234099266837)"><path d="M-239.71787194995895 -74.79645896472455 C-252.95575543182713 -67.53040587907292, -261.101363515605 -62.880547365491395, -266.3278464637852 -59.95604731460665 M-241.07755749015823 -74.17716992415906 C-250.45226040813708 -70.13869077599225, -260.7130848939789 -64.66466049853243, -267.8297172151661 -58.75908722301577" stroke="#000000" stroke-width="1" fill="none"></path></g><g transform="translate(477.16161616161605 92.20521291598311) rotate(0 -128.25731622876643 -37.91234099266837)"><path d="M-235.35960610478915 -54.74339133883085 C-250.37738526899346 -55.26964678777276, -260.2230826783131 -58.44216704278642, -266.3278464637852 -59.95604731460665 M-236.71929164498843 -54.124102298265356 C-247.5862309310266 -57.22662349745153, -259.39124848632184 -58.857668759040166, -267.8297172151661 -58.75908722301577" stroke="#000000" stroke-width="1" fill="none"></path></g></g><g><g transform="translate(428.67676767676755 164.93248564325586) rotate(0 -25.325994176094014 -14.559823727366904)"><path d="M0.7822905063629151 0.34503264427185054 C-7.625231033704108 -4.69221109541177, -42.69155224035892 -24.543110187447038, -51.43427885855094 -29.46468009900566 M-0.26614570713602004 -0.5194291628245264 C-8.216445425358465 -5.522110642893681, -41.02227643954034 -23.91092887389694, -49.21016920776584 -28.547727051277494" stroke="#000000" stroke-width="1" fill="none"></path></g><g transform="translate(428.67676767676755 164.93248564325586) rotate(0 -25.325994176094014 -14.559823727366904)"><path d="M-20.083643814985628 -25.35480306020812 C-28.87040175207145 -26.599966357919126, -34.61521453930556 -25.570565835378286, -50.11646093101718 -28.15550011684451 M-19.964652320806856 -23.516387556706228 C-30.694749468462817 -24.807229740227033, -42.08794697899944 -27.13604854870108, -48.66467143268802 -28.82462626983676" stroke="#000000" stroke-width="1" fill="none"></path></g><g transform="translate(428.67676767676755 164.93248564325586) rotate(0 -25.325994176094014 -14.559823727366904)"><path d="M-29.811285209670885 -8.111603810898284 C-36.59062375143701 -13.171800233245406, -40.21898518451899 -15.894017489404305, -50.11646093101718 -28.15550011684451 M-29.692293715492113 -6.273188307396392 C-36.78896816951896 -13.681630584684079, -44.68685291338384 -22.206234376279145, -48.66467143268802 -28.82462626983676" stroke="#000000" stroke-width="1" fill="none"></path></g></g><g><g transform="translate(680.191919191919 197.2557179664882) rotate(0 -3.5352370662525345 27.1208920566484)"><path d="M-0.5179322719573974 -0.30869965553283685 C-1.9372662725673382 8.926827609097513, -6.407966227643821 46.59757894056814, -7.721880306378762 55.75815503332349 M1.4110145559255036 -1.516370920026675 C-0.20442037674610947 7.301064795624393, -6.690413830755907 44.23932911703328, -8.481488688430572 53.741945010372945" stroke="#000000" stroke-width="1" fill="none"></path></g><g transform="translate(680.191919191919 197.2557179664882) rotate(0 -3.5352370662525345 27.1208920566484)"><path d="M-13.737524601011224 26.673433643638266 C-11.069578032218667 35.69225528492876, -11.172333432950875 47.604430329218246, -6.895791275939727 52.94174335593874 M-13.522166224508233 26.23762581950344 C-12.22555959882693 36.58836432520941, -9.346790072762452 46.278751842535755, -9.450418098411346 54.55039582843477" stroke="#000000" stroke-width="1" fill="none"></path></g><g transform="translate(680.191919191919 197.2557179664882) rotate(0 -3.5352370662525345 27.1208920566484)"><path d="M5.155611804360152 30.098416635438102 C0.8954802583083667 37.781543657284004, -6.125506675324055 48.439568790985845, -6.895791275939727 52.94174335593874 M5.370970180863143 29.662608811303276 C-0.35661107816010684 38.570118341988426, -4.530591565395577 46.98197018780494, -9.450418098411346 54.55039582843477" stroke="#000000" stroke-width="1" fill="none"></path></g></g><g><g transform="translate(365.0404040404039 187.15470786547803) rotate(0 2.0253193645786496 -28.428548383519868)"><path d="M0.3692503452301026 -0.7165853977203369 C1.0443371148221825 -10.522995738308838, 4.141163990553784 -48.87233857771362, 4.946670682020863 -58.37870009017712 M-0.8960319528635592 1.5216033231373878 C-0.3780812715831515 -8.190925910180395, 3.483979448965134 -47.58734560339692, 4.47441520524249 -57.2628196590261" stroke="#000000" stroke-width="1" fill="none"></path></g><g transform="translate(365.0404040404039 187.15470786547803) rotate(0 2.0253193645786496 -28.428548383519868)"><path d="M10.428548022495082 -27.793066235046474 C7.499125346878802 -37.82080759817646, 5.860662449637948 -50.8317269736604, 6.017021797420835 -58.100008618147804 M12.301316066966823 -29.40679153965005 C10.235026822404958 -38.78184382316083, 8.33506150919239 -46.81505006045843, 3.945976517917966 -57.52669550112052" stroke="#000000" stroke-width="1" fill="none"></path></g><g transform="translate(365.0404040404039 187.15470786547803) rotate(0 2.0253193645786496 -28.428548383519868)"><path d="M-9.21576707708196 -29.739372120876908 C-4.777417057615744 -39.09832045727198, 0.9444357619267816 -51.379999554918285, 6.017021797420835 -58.100008618147804 M-7.342999032610219 -31.353097425480485 C-3.4823970226196295 -40.075014243660775, 0.5617660202443853 -47.519292236480545, 3.945976517917966 -57.52669550112052" stroke="#000000" stroke-width="1" fill="none"></path></g></g><g><g transform="translate(382.212121212121 190.1850108957811) rotate(0 37.16747578659448 -36.41677654016628)"><path d="M-1.1622941493988037 -0.3008856296539306 C11.314247764080072 -12.022947768169626, 62.93247138723386 -58.65750522115819, 75.49724572258773 -70.51233103154888 M0.42836269282735895 -1.5044545305613428 C12.75666378166644 -13.599362856728193, 62.81637979455879 -61.034775239700366, 74.94283002089482 -72.53266745067862" stroke="#000000" stroke-width="1" fill="none"></path></g><g transform="translate(382.212121212121 190.1850108957811) rotate(0 37.16747578659448 -36.41677654016628)"><path d="M61.04752295343416 -44.43895687280562 C66.64407014397734 -55.90780925500832, 69.84513593730694 -64.5535105397552, 74.7209941692255 -72.77106338001516 M61.056883862896136 -46.57849623380568 C66.67992238845112 -54.93788644384504, 70.31747312796918 -63.86449772779048, 75.90409546565037 -73.28838365532187" stroke="#000000" stroke-width="1" fill="none"></path></g><g transform="translate(382.212121212121 190.1850108957811) rotate(0 37.16747578659448 -36.41677654016628)"><path d="M46.92603423329495 -59.328670057176254 C57.48748436395408 -65.40220151369856, 65.67578248064916 -68.78935957043353, 74.7209941692255 -72.77106338001516 M46.935395142756924 -61.468209418176315 C56.94193189975014 -65.21136489761487, 65.0913653592458 -69.38064209636747, 75.90409546565037 -73.28838365532187" stroke="#000000" stroke-width="1" fill="none"></path></g></g><g><g transform="translate(217.5656565656564 198.26581897658917) rotate(0 -23.74277564223614 -24.30527031975562)"><path d="M0.58437180519104 1.0114083766937256 C-7.334691585675627 -7.259821710843428, -39.280578633029016 -41.02264275679282, -47.59109710202068 -49.62194901620497 M-0.5679717264231294 0.49679382911883296 C-8.560140443882718 -7.581656225366354, -40.364380072200674 -39.76191301184624, -48.06992308966331 -48.151198513642825" stroke="#000000" stroke-width="1" fill="none"></path></g><g transform="translate(217.5656565656564 198.26581897658917) rotate(0 -23.74277564223614 -24.30527031975562)"><path d="M-19.473254833779556 -33.4027009714336 C-29.27245411013746 -39.97729580706072, -38.777840363373905 -41.003497470143536, -47.07945577971153 -49.30367983116297 M-21.884704623780472 -34.495514105627024 C-29.33958302493452 -39.33510286646207, -39.370102332815264 -44.01048004916368, -48.595119284312055 -47.89671040310053" stroke="#000000" stroke-width="1" fill="none"></path></g><g transform="translate(217.5656565656564 198.26581897658917) rotate(0 -23.74277564223614 -24.30527031975562)"><path d="M-34.29189422044214 -19.20664767786317 C-39.740880726916956 -30.021465529607227, -44.89541166034129 -35.21572691673315, -47.07945577971153 -49.30367983116297 M-36.703344010443054 -20.29946081205659 C-39.22296993650976 -29.920584018627743, -44.38236390883303 -39.26243246491067, -48.595119284312055 -47.89671040310053" stroke="#000000" stroke-width="1" fill="none"></path></g></g><g><g transform="translate(270.09090909090895 192.2052129159831) rotate(0 -39.547148656313254 -65.44086970502657)"><path d="M-1.18094801902771 -0.7418264865875244 C-14.61418833539944 -22.95449833548832, -66.50701745977308 -110.78660205189229, -79.4942128542698 -132.36485007266808 M0.3999155416432769 1.4831106626149269 C-12.739857835696373 -20.696947168858895, -63.74712352540956 -109.13649639141833, -77.15308370275227 -131.37957717020356" stroke="#000000" stroke-width="1" fill="none"></path></g><g transform="translate(270.09090909090895 192.2052129159831) rotate(0 -39.547148656313254 -65.44086970502657)"><path d="M-55.254491387846244 -113.45776470402514 C-64.98727848464799 -120.52406543615768, -70.46933036552717 -128.4957461693587, -77.50459637326924 -131.24769569475495 M-53.482561050894034 -112.60846968392168 C-58.27100097202839 -116.0782002540146, -63.84714279000693 -119.22920450330263, -76.53512193841664 -131.74725092489564" stroke="#000000" stroke-width="1" fill="none"></path></g><g transform="translate(270.09090909090895 192.2052129159831) rotate(0 -39.547148656313254 -65.44086970502657)"><path d="M-72.94366976909966 -103.05521835315332 C-75.81947556564738 -114.02629935232846, -74.36555778958714 -126.07684368730185, -77.50459637326924 -131.24769569475495 M-71.17173943214745 -102.20592333304987 C-72.45064605888777 -107.75247962003414, -74.44410891306396 -113.01036431215519, -76.53512193841664 -131.74725092489564" stroke="#000000" stroke-width="1" fill="none"></path></g></g><g><g transform="translate(202.41414141414128 146.75066746143767) rotate(0 34.516685997837754 -6.520905446042946)"><path d="M-1.1596299648284911 1.1019677639007568 C10.6166558064997 -1.3644668099053436, 58.069108767300754 -11.835205410305527, 70.19300196050395 -14.143778655986626 M0.4324255742970853 0.6348968946095557 C12.046371399891733 -1.7730581832539518, 57.1674285668376 -10.550161967544, 68.9750704049292 -13.137897805218909" stroke="#000000" stroke-width="1" fill="none"></path></g><g transform="translate(202.41414141414128 146.75066746143767) rotate(0 34.516685997837754 -6.520905446042946)"><path d="M45.262953766451616 1.7299009746016054 C48.328308072423624 0.18624892101659896, 57.32737033286152 -5.604539543045997, 68.1504055737677 -12.53396280193827 M42.70548880921437 2.338950175613263 C51.657625785479084 -2.723653966447686, 59.48721977373201 -7.934643836824754, 69.28352670661835 -13.643758968358252" stroke="#000000" stroke-width="1" fill="none"></path></g><g transform="translate(202.41414141414128 146.75066746143767) rotate(0 34.516685997837754 -6.520905446042946)"><path d="M41.132655815533326 -18.37135871782761 C45.38684005441896 -14.623161887377538, 55.465041551949234 -15.162014944634677, 68.1504055737677 -12.53396280193827 M38.57519085829608 -17.762309516815954 C48.69782433388311 -16.23732015872255, 57.87937705335604 -14.868621620988975, 69.28352670661835 -13.643758968358252" stroke="#000000" stroke-width="1" fill="none"></path></g></g><g><g transform="translate(176.151515151515 152.81127352204373) rotate(0 25.054526299659642 26.566283668356647)"><path d="M-0.38315749168395996 -0.9952810764312744 C8.141408115765858 7.68489350774874, 42.20909956167841 43.91362864866801, 50.49221009100322 52.915727060973026 M1.6165460958424958 1.0965924131032079 C10.03929543919939 9.85388296783519, 41.209298366647374 45.30014330572398, 49.53742341000122 54.127848413144555" stroke="#000000" stroke-width="1" fill="none"></path></g><g transform="translate(176.151515151515 152.81127352204373) rotate(0 25.054526299659642 26.566283668356647)"><path d="M21.33223958829725 40.13184213857926 C28.570051770316088 41.68481753325813, 35.25387419643461 45.58247424438702, 48.503720798078 52.269068267499414 M23.388685306108833 40.82308662157334 C29.527449284459507 44.60457194495198, 35.42122867165966 46.29471939632536, 50.162984051289975 54.56556406274935" stroke="#000000" stroke-width="1" fill="none"></path></g><g transform="translate(176.151515151515 152.81127352204373) rotate(0 25.054526299659642 26.566283668356647)"><path d="M36.52561649871716 26.33759332091042 C40.13090130965234 31.22718414591968, 43.086248219045444 38.50996842227232, 48.503720798078 52.269068267499414 M38.58206221652875 27.028837803904498 C41.15938770761846 34.08598513184686, 43.38883637994638 39.10302231479189, 50.162984051289975 54.56556406274935" stroke="#000000" stroke-width="1" fill="none"></path></g></g><g><g transform="translate(202.41414141414128 112.40723311800332) rotate(0 124.33978740696324 -27.68789972591341)"><path d="M0.4495741367340087 0.5931542873382569 C0.12065420520025133 0.6984658204345191, -21.933655775917877 11.13369049865389, -0.8594969051052543 1.2208532588650485 C20.21466196570737 -8.691983980923792, 83.5673265150501 -56.50973814713836, 126.89452736160976 -58.88386915139479 C170.22172820816942 -61.258000155651224, 237.23124628628946 -20.580548191552218, 259.10370817425274 -13.023932766673544 M-0.7735381708201021 -0.14104365714825695 C-1.3447785168374067 -0.4744596593594022, -22.845777260560727 9.327505303720104, -1.7284752136097017 -0.7910765593125473 C19.388826833341323 -10.909658422345197, 82.37178186621836 -58.48548190262236, 125.93027411088605 -60.85253483534416 C169.48876635555374 -63.219587768065956, 237.2644253181328 -22.995502082674932, 259.62247825439636 -14.993394155643339" stroke="#000000" stroke-width="1" fill="none"></path></g><g transform="translate(202.41414141414128 112.40723311800332) rotate(0 124.33978740696324 -27.68789972591341)"><path d="M230.7022756416953 -17.079927859935932 C241.8256394524008 -17.15505145553103, 254.41043053604926 -14.743367359793538, 261.48494721229736 -15.754327316425199 M229.42368031336431 -18.155021725330524 C240.67898413832222 -17.20073693058931, 250.13236787959903 -16.316184101456496, 258.93795359905425 -15.683032174251432" stroke="#000000" stroke-width="1" fill="none"></path></g><g transform="translate(202.41414141414128 112.40723311800332) rotate(0 124.33978740696324 -27.68789972591341)"><path d="M239.20214608515735 -35.75804887973338 C247.07813735197198 -28.46390427738376, 256.32387992875647 -18.714796333009634, 261.48494721229736 -15.754327316425199 M237.92355075682636 -36.83314274512797 C246.27640688111364 -29.284072938959056, 252.75679268035609 -21.866477550849464, 258.93795359905425 -15.683032174251432" stroke="#000000" stroke-width="1" fill="none"></path></g></g><g><g transform="translate(131.70707070707056 117.45773816850837) rotate(0 6.038596307337784 -25.19082321083409)"><path d="M-0.48383545875549316 -0.8214295864105224 C1.3241183828424485 -9.039790970227536, 8.205230319058433 -41.51851452063231, 10.283545488781375 -49.925205982574326 M1.4630121960584073 1.3617159353848547 C3.6998982934608877 -7.157725507543278, 10.858246256500394 -43.12619825978226, 12.561028073431071 -51.74336235705304" stroke="#000000" stroke-width="1" fill="none"></path></g><g transform="translate(131.70707070707056 117.45773816850837) rotate(0 6.038596307337784 -25.19082321083409)"><path d="M15.110865909411615 -27.56492815465668 C16.58589358620931 -31.20893469464444, 13.36718583235278 -39.05955253933706, 13.017929385305461 -52.66013686839032 M15.482946116282648 -26.881262283036502 C15.906267788804493 -31.677225199334483, 14.928937287629761 -37.11609465725283, 12.138937662244853 -52.46960072699475" stroke="#000000" stroke-width="1" fill="none"></path></g><g transform="translate(131.70707070707056 117.45773816850837) rotate(0 6.038596307337784 -25.19082321083409)"><path d="M-2.234158989321953 -31.025284384733094 C3.611167924916632 -33.723937516490004, 4.7804948207225415 -40.699136436943476, 13.017929385305461 -52.66013686839032 M-1.8620787824509204 -30.341618513112916 C2.346531593522253 -34.42432104056034, 5.165648260416874 -39.10579408729546, 12.138937662244853 -52.46960072699475" stroke="#000000" stroke-width="1" fill="none"></path></g></g><g><g transform="translate(205.44444444444434 54.83147554224572) rotate(0 35.675029657840355 19.829670809416026)"><path d="M0.3668450832366943 0.77901291847229 C12.412820744594738 7.068142130720095, 60.517797303601135 31.983541120824597, 72.24975929308418 38.1187152549474 M-0.8996999774035067 0.14239075533114365 C11.037139092102827 6.57909469362408, 59.2397593927765 33.12554770455063, 71.58132230681103 39.51695086350092" stroke="#000000" stroke-width="1" fill="none"></path></g><g transform="translate(205.44444444444434 54.83147554224572) rotate(0 35.675029657840355 19.829670809416026)"><path d="M43.18704918894598 36.12115854045552 C50.30374740814481 34.82086670470117, 58.265871626594276 36.71705938110155, 73.24420201224011 40.38321163048395 M42.85892645392248 35.30861622115773 C49.00929100140419 36.498374799261505, 57.29189586324412 36.971682640719784, 71.59542726915997 40.37758840908655" stroke="#000000" stroke-width="1" fill="none"></path></g><g transform="translate(205.44444444444434 54.83147554224572) rotate(0 35.675029657840355 19.829670809416026)"><path d="M52.88714555883722 18.037239363444634 C57.172767768920195 22.152452386727912, 62.245956481640846 29.434496316664116, 73.24420201224011 40.38321163048395 M52.55902282381372 17.224697044146843 C55.99798449272572 23.086524472954192, 61.72292467091124 28.3280943663925, 71.59542726915997 40.37758840908655" stroke="#000000" stroke-width="1" fill="none"></path></g></g><g><g transform="translate(216.55555555555543 35.63955635032655) rotate(0 130.15717626253786 16.652870682140595)"><path d="M0.510514211654663 -0.1684892177581787 C0.6543511353759205 -0.24732069969177245, -18.660485180459872 3.923221026366007, 1.4670706050564264 -0.020681905746460005 C21.594626390572728 -3.9645848378589266, 76.72068223198661 -33.57626260490932, 121.27584892475247 -23.83190681043298 C165.83101561751832 -14.087551015956643, 244.07965027443078 44.71893577270635, 268.7980707616516 58.44545286111156 M-0.6806045565661043 -1.3025500024203212 C-0.7076583750871832 -1.2184002641681582, -19.445101193396333 5.093660570602294, 0.7589341787808304 1.505885344957933 C20.962969550957993 -2.081889880686428, 75.90792206181928 -32.40243675122812, 120.54360767649688 -22.82920135628649 C165.17929329117447 -13.255965961344854, 243.98743331924032 45.4142917709002, 268.57304786684637 58.94529771460774" stroke="#000000" stroke-width="1" fill="none"></path></g><g transform="translate(216.55555555555543 35.63955635032655) rotate(0 130.15717626253786 16.652870682140595)"><path d="M238.99241334243834 53.263265895782276 C249.52786952711125 54.740663936063385, 258.8278565135005 55.39373715097654, 266.65553664209966 58.760967966454054 M239.23159331127226 52.71954147809581 C245.30310241739338 53.477464874727076, 251.81277999477598 55.55273265157539, 268.07784878256444 59.19030034198048" stroke="#000000" stroke-width="1" fill="none"></path></g><g transform="translate(216.55555555555543 35.63955635032655) rotate(0 130.15717626253786 16.652870682140595)"><path d="M249.98916582459552 35.93723238455964 C256.73735381208127 43.53137165701439, 262.18476688466427 50.25440278389961, 266.65553664209966 58.760967966454054 M250.22834579342944 35.39350796687318 C253.99452595463822 39.81531595310104, 258.1845887711918 45.54527388910867, 268.07784878256444 59.19030034198048" stroke="#000000" stroke-width="1" fill="none"></path></g></g><g><g transform="translate(200.39393939393926 66.95268766345785) rotate(0 38.14335821156752 70.1457457273659)"><path d="M0.26146988868713383 -0.1870031833648682 C13.135933400966502 23.425036437904794, 64.35629263807225 118.12112430530767, 77.34711357222662 141.62227525470234 M-1.0603971490915867 -1.3307837999705225 C11.609582862766734 21.898206996929233, 63.051949626329794 115.74960448512974, 76.17296940068506 139.6089707722181" stroke="#000000" stroke-width="1" fill="none"></path></g><g transform="translate(200.39393939393926 66.95268766345785) rotate(0 38.14335821156752 70.1457457273659)"><path d="M53.30253321771609 119.11489417370294 C60.909105010596846 126.59611843009353, 66.52806113576213 132.47000219225154, 77.21662121991419 137.72593678135812 M53.46725148801791 120.23051991280053 C61.25782798409417 125.10520619125963, 67.6553370300525 131.17785949461677, 75.8204607365539 139.66324449677407" stroke="#000000" stroke-width="1" fill="none"></path></g><g transform="translate(200.39393939393926 66.95268766345785) rotate(0 38.14335821156752 70.1457457273659)"><path d="M71.2922439452295 109.24117601253243 C73.34737883959698 119.80626834887723, 73.41900902771737 128.7248221271441, 77.21662121991419 137.72593678135812 M71.45696221553132 110.35680175163003 C73.83316933967454 118.40120526640351, 74.77419476098058 127.46866945232037, 75.8204607365539 139.66324449677407" stroke="#000000" stroke-width="1" fill="none"></path></g></g><g><g transform="translate(139.78787878787864 69.98299069376088) rotate(0 -6.196841118070807 27.27872273929666)"><path d="M-0.12510895729064941 -0.7344773769378662 C-2.2980560850214036 8.198019594937461, -10.5362999792452 44.58020017042705, -12.268573278850955 53.67905456417738 M-1.649929889207706 1.4943180548306554 C-3.5394733255870463 10.636400250797989, -8.610365226190448 46.3166648764065, -10.16428638054159 55.29192285553118" stroke="#000000" stroke-width="1" fill="none"></path></g><g transform="translate(139.78787878787864 69.98299069376088) rotate(0 -6.196841118070807 27.27872273929666)"><path d="M-16.654773492919677 26.53674631167427 C-13.25490702598584 39.22578190268466, -11.038141710218353 49.663477312845316, -10.732630735171107 56.74158053413531 M-14.872571368324035 29.21550266791359 C-12.98545731874028 36.78909496754531, -11.81888355644049 45.14682251624883, -9.873985892069605 54.38680188671252" stroke="#000000" stroke-width="1" fill="none"></path></g><g transform="translate(139.78787878787864 69.98299069376088) rotate(0 -6.196841118070807 27.27872273929666)"><path d="M1.8207875575558568 29.427705375651676 C-1.5081838218492023 41.04490242563429, -6.018230928843245 50.43002144625371, -10.732630735171107 56.74158053413531 M3.602989682151499 32.106461731890995 C-0.47453403394016824 38.63843159854934, -5.243976884064991 46.067322345884506, -9.873985892069605 54.38680188671252" stroke="#000000" stroke-width="1" fill="none"></path></g></g><g><g transform="translate(671.10101010101 248.7708694816397) rotate(0 5.1501977485934844 -32.34458455740783)"><path d="M-1.12601637840271 -1.1366018772125244 C0.3946206200403708 -12.120575283352382, 7.275113254925976 -54.8706977287126, 9.191795175244057 -65.57024730672745 M0.4836862935964019 0.8810781919118016 C2.3707980435715603 -9.920164009301086, 9.8817369256176 -53.19948977331679, 11.426411875589707 -63.98750492184108" stroke="#000000" stroke-width="1" fill="none"></path></g><g transform="translate(671.10101010101 248.7708694816397) rotate(0 5.1501977485934844 -32.34458455740783)"><path d="M15.189788501271842 -36.04118832133149 C15.416725452723348 -43.129196785612336, 14.081277064118527 -53.547172910509374, 12.83100272069774 -62.98282071201747 M17.50139168978655 -34.643675527790535 C14.431180271535025 -44.70313307592086, 13.439098226616757 -55.30939283792151, 11.65655625711284 -64.68806441872066" stroke="#000000" stroke-width="1" fill="none"></path></g><g transform="translate(671.10101010101 248.7708694816397) rotate(0 5.1501977485934844 -32.34458455740783)"><path d="M-5.071464443393648 -39.29720298624373 C1.3576684163507116 -45.19984272170951, 6.215364401674096 -54.622570973313586, 12.83100272069774 -62.98282071201747 M-2.7598612548789383 -37.89969019270278 C1.388143232596979 -46.626706065705804, 7.600448499542949 -56.07520965126457, 11.65655625711284 -64.68806441872066" stroke="#000000" stroke-width="1" fill="none"></path></g></g></svg>