<svg version="1.1" xmlns="http://www.w3.org/2000/svg" viewBox="0 0 351.4250000000002 181">
  <!-- svg-source:excalidraw -->
  <defs>
    <style>
      @font-face {
        font-family: "Virgil";
        src: url("https://excalidraw.com/FG_Virgil.woff2");
      }
      @font-face {
        font-family: "Cascadia";
        src: url("https://excalidraw.com/Cascadia.woff2");
      }
    </style>
  </defs>
  <rect x="0" y="0" width="351.4250000000002" height="181" fill="#ffffff"></rect><g transform="translate(10 14) rotate(0 79 31.5)"><path d="M-0.672931432723999 0.9268109798431396 C36.194792056083685 2.4815384936332703, 78.13697843551637 0.8882844042778015, 159.9648630619049 1.9048612117767334 M0.13981616497039795 -0.9339007139205933 C59.36751236915589 -0.7033291172981262, 118.43883650302888 -0.4543705296516418, 158.5410727262497 0.12156879901885986 M159.68159890174866 0.4605863094329834 C159.55954745173455 20.738187181949613, 159.9532165801525 39.99991891384124, 158.72979378700256 62.87589240074156 M157.11092746257782 -0.42045390605926514 C158.71682880043983 21.75064040422439, 157.6369986307621 45.95505990982055, 158.75034320354462 62.816778302192674 M159.5930140018463 63.37888312339781 C116.32153227329255 65.28281665086745, 72.45263843536377 64.42637896776198, -1.1593282222747803 61.06738257408141 M158.51258075237274 63.78549778461455 C122.23211660385132 63.1847224831581, 84.50621788501739 63.68636661767958, 0.4331244230270386 62.349023938179 M-0.7121236324310303 64.08013892173766 C-0.6186209952831269 39.826597344875324, -0.5789557731151581 14.979061627387992, -1.225940465927124 -1.3722307682037354 M0.6689947843551636 62.04723560810088 C-1.0138060438632965 41.472048127651206, -0.3502280104160309 18.844248342514035, 0.7886351346969604 0.20658695697784424" stroke="#000000" stroke-width="1" fill="none"></path></g><g transform="translate(13.5 20) rotate(0 71.5 27)"><text x="71.5" y="18" font-family="Virgil" font-size="20px" fill="#000000" text-anchor="middle" style="white-space: pre;" direction="ltr">Norddeich Mole</text><text x="71.5" y="45" font-family="Virgil" font-size="20px" fill="#000000" text-anchor="middle" style="white-space: pre;" direction="ltr">8007768</text></g><g transform="translate(214 10) rotate(0 63.71250000000009 35)"><path d="M-1.3142430782318115 0.17237067222595215 C40.04655029982332 -0.9608468882739547, 79.77868156850346 1.0098638661205765, 128.29884438514722 1.342315435409546 M-0.1946793794631958 0.6316739320755005 C30.804908201992543 -1.2994177520573145, 62.12468621313578 -0.7347853362858301, 128.37596194744123 -0.11583507061004639 M125.87886147499097 -1.652740716934204 C127.32968190908444 23.437987208366394, 127.33907369375241 49.46597099304199, 126.27422432899488 68.90758490562439 M128.23292605876935 -0.6012171506881714 C127.86414927244199 20.541813850402832, 128.19130152463924 41.616607546806335, 126.84328906536115 70.23147404193878 M129.12572579383863 69.73479437828064 C94.03871012955913 71.83686256095767, 62.651157355904644 70.0131397216022, 1.5924265384674072 70.02143836021423 M126.83013598918927 69.31933414936066 C96.09624273985634 71.79338292005659, 64.8934774202109 72.12632588270307, 0.7731894254684448 70.62675678730011 M0.15291237831115723 71.23341345787048 C-2.01312335729599 46.33315336704254, -0.32648547887802126 23.792024135589593, -0.9199864864349365 -0.6676867008209229 M0.17116916179656982 70.50660908222198 C0.3446433663368226 54.866721391677856, 0.1495788216590882 40.57265889644623, 0.4648817777633667 0.308294415473938" stroke="#000000" stroke-width="1" fill="none"></path></g><g transform="translate(231.0875000000001 21.725000000000023) rotate(0 45.337500000000034 26.325000000000017)"><text x="45.33750000000004" y="16.67499999999998" font-family="Virgil" font-size="19.111950000000018px" fill="#000000" text-anchor="middle" style="white-space: pre;" direction="ltr">Norddeich</text><text x="45.33750000000004" y="43" font-family="Virgil" font-size="19.111950000000018px" fill="#000000" text-anchor="middle" style="white-space: pre;" direction="ltr">8004449</text></g><g><g transform="translate(156 49) rotate(0 35.17626217317303 0.3842919608215567)"><path d="M-0.14003005027770987 -0.9905569553375244 C11.804917764663697 -0.8145819187164307, 59.9342161655426 -0.251473093032837, 72.02520890235901 0.05892577171325675 M-1.6726845560129733 1.1037966977711768 C10.08533957296051 1.5765263768192381, 58.83606078349985 1.9800803213473412, 71.09039811247028 1.6272870530840011" stroke="#000000" stroke-width="1" fill="none"></path></g><g transform="translate(156 49) rotate(0 35.17626217317303 0.3842919608215567)"><path d="M41.32096242524774 12.1263349305157 C52.42558882753691 9.34675731285783, 63.04905418802253 5.90131108783394, 71.62120966070331 0.4315318097826095 M42.57800018407495 12.595991278744155 C51.781839218346356 9.465796640410305, 58.3954050626607 6.5862805671491875, 71.25547901743091 2.2476504077669235" stroke="#000000" stroke-width="1" fill="none"></path></g><g transform="translate(156 49) rotate(0 35.17626217317303 0.3842919608215567)"><path d="M41.177792217003145 -8.394374235527042 C52.15913138966364 -4.4096083835299495, 62.82978949267225 -1.0908782066610359, 71.62120966070331 0.4315318097826095 M42.434829975830354 -7.924717887298588 C51.839836454652215 -5.209021528412189, 58.49419614861176 -2.2415200231109322, 71.25547901743091 2.2476504077669235" stroke="#000000" stroke-width="1" fill="none"></path></g></g><g><g transform="translate(218 47) rotate(0 -32.937365576508455 0.6566839694976778)"><path d="M-0.6188803195953368 -1.1719071865081787 C-11.846518564224244 -0.7642803351084391, -56.35421051979065 1.7706658522288006, -67.13179993629456 2.48527512550354 M1.2570687832776457 0.8272375952359288 C-9.638100828593599 0.868236291821425, -53.858789911633366 0.5288422128713379, -65.01404036647641 0.6174698176141828" stroke="#000000" stroke-width="1" fill="none"></path></g><g transform="translate(218 47) rotate(0 -32.937365576508455 0.6566839694976778)"><path d="M-38.768101470952914 -11.506527693058963 C-45.012447307992296 -5.302029221196213, -52.97134587933681 -3.4010730347478084, -66.55703987247311 2.4883158507104963 M-36.34459533024399 -10.441609532620426 C-45.27778405979863 -6.661193278978484, -53.48956589148423 -3.56622938773409, -64.89571406013333 0.34660330436192455" stroke="#000000" stroke-width="1" fill="none"></path></g><g transform="translate(218 47) rotate(0 -32.937365576508455 0.6566839694976778)"><path d="M-38.78479796493349 9.014674114167832 C-45.03056652371696 8.66268421626456, -52.98413052414533 4.007065923517519, -66.55703987247311 2.4883158507104963 M-36.361291824224566 10.07959227460637 C-45.23382210158141 8.10513831624098, -53.440921515406814 5.445071123301745, -64.89571406013333 0.34660330436192455" stroke="#000000" stroke-width="1" fill="none"></path></g></g><g transform="translate(107 111) rotate(0 99 30)"><path d="M0.15372443199157715 0.4320566654205322 C57.268304657936106 -3.790905797481537, 114.14045324325564 -0.6306351065635682, 198.6449582576752 0.7800562381744385 M-0.966668963432312 -0.07753384113311768 C39.90121655464173 -1.856588475704193, 81.97820851802827 -1.5462819266319274, 197.71111500263217 -0.7677079439163208 M199.04833960533145 0.4010889530181885 C199.03010756969454 16.14846134185791, 197.79012496471407 34.76717162132263, 198.83620429039004 60.41730141639709 M198.08901417255404 0.8031233549118042 C197.58582935333254 15.770503163337708, 197.79291782379153 32.80807340145111, 198.143873333931 60.909702181816094 M198.8118512630463 60.87231850624084 C133.65304954051973 60.043278253078455, 68.17369117736817 58.162045037746424, 1.2322843074798584 59.595806360244744 M198.22001469135287 60.32916629314422 C126.21486415863039 58.31361689329147, 55.58288257122041 58.21108164548873, 0.04648029804229736 59.650466799736016 M1.3426969051361084 61.322307825088494 C0.6494436502456665 44.89305067062377, -1.3068475484848023 28.66325640678405, 1.4816358089447021 0.04213356971740723 M-0.9603861570358276 59.19981372356414 C-0.36480021476745594 36.955082535743706, -0.05346369743347157 13.991479277610772, 0.1572171449661255 -0.9711953401565552" stroke="#000000" stroke-width="1" fill="none"></path></g><g transform="translate(107.5 115) rotate(0 94.5 27)"><text x="94.5" y="18" font-family="Virgil" font-size="20px" fill="#000000" text-anchor="middle" style="white-space: pre;" direction="ltr">Norddeich Flugplatz</text><text x="94.5" y="45" font-family="Virgil" font-size="20px" fill="#000000" text-anchor="middle" style="white-space: pre;" direction="ltr">8070178</text></g><g><g transform="translate(274 68.99999999999997) rotate(0 -1.8164814501488422 23.593919864469214)"><path d="M-0.2564550876617432 -0.14353652000427242 C-1.0438879031051558 7.8936958776274695, -3.868150720054587 39.12992557801772, -4.572722207372999 47.366327897524464 M1.809767261976376 -1.264497138345614 C0.8640303742125024 6.976860278300009, -4.286951494038408 40.32776460498106, -5.442730162274083 48.45233686728403" stroke="#000000" stroke-width="1" fill="none"></path></g><g transform="translate(274 68.99999999999997) rotate(0 -1.8164814501488422 23.593919864469214)"><path d="M-10.530734068811132 24.9618564347474 C-10.378117581690514 32.54218431184024, -5.681201638402957 37.952237634809414, -5.6313976980559435 49.281717141103 M-10.886101371705724 25.026778409883203 C-8.826287916189237 29.78216486950326, -7.887207603479709 36.406514349964525, -4.934125993382176 49.284173448514196" stroke="#000000" stroke-width="1" fill="none"></path></g><g transform="translate(274 68.99999999999997) rotate(0 -1.8164814501488422 23.593919864469214)"><path d="M5.862296871263137 27.398811201425755 C0.9069354773166709 34.18217603543785, 0.4784682706709793 38.83030028354942, -5.6313976980559435 49.281717141103 M5.506929568368545 27.463733176561558 C3.473096198754218 31.72009650512198, 0.30146210936509643 37.73335551102319, -4.934125993382176 49.284173448514196" stroke="#000000" stroke-width="1" fill="none"></path></g></g><g><g transform="translate(269.0581278195325 114.81218400001524) rotate(0 2.566932368278515 -27.46295488764065)"><path d="M0.9949288845062256 -0.1878159999847413 C1.6681169928719024 -9.112004971504208, 4.755624980533828 -43.963404107093794, 5.075736917024505 -53.02748565673826 M0.058127819532528546 -1.332023345315829 C0.5818045801871191 -10.638477678680788, 3.8541401474069414 -46.01778397508895, 4.72297044008973 -54.73809377529656" stroke="#000000" stroke-width="1" fill="none"></path></g><g transform="translate(269.0581278195325 114.81218400001524) rotate(0 2.566932368278515 -27.46295488764065)"><path d="M11.20255798583859 -26.739263928006437 C10.086230084132335 -40.37129501494319, 4.886973081397043 -49.774243778598404, 5.4436580678820885 -54.42561261036431 M11.34784299617642 -27.686529910634306 C9.525662049493796 -35.81692765065138, 7.873163431619744 -43.65222997746423, 4.2938037654757775 -55.04264406540429" stroke="#000000" stroke-width="1" fill="none"></path></g><g transform="translate(269.0581278195325 114.81218400001524) rotate(0 2.566932368278515 -27.46295488764065)"><path d="M-7.169189093593269 -28.48141424405955 C-1.1794522888559245 -41.59262779977496, 0.719840240459769 -50.32243751697408, 5.4436580678820885 -54.42561261036431 M-7.02390408325544 -29.42868022668742 C-3.5476077503873484 -37.07079164954244, 0.1077783707246569 -44.402759533767046, 4.2938037654757775 -55.04264406540429" stroke="#000000" stroke-width="1" fill="none"></path></g></g></svg>