<svg version="1.1" xmlns="http://www.w3.org/2000/svg" viewBox="0 0 496 180">
  <!-- svg-source:excalidraw -->
  <defs>
    <style>
      @font-face {
        font-family: "Virgil";
        src: url("https://excalidraw.com/FG_Virgil.woff2");
      }
      @font-face {
        font-family: "Cascadia";
        src: url("https://excalidraw.com/Cascadia.woff2");
      }
    </style>
  </defs>
  <rect x="0" y="0" width="496" height="180" fill="#ffffff"></rect><g transform="translate(23 13) rotate(0 90 27)"><text x="90" y="18" font-family="Virgil" font-size="20px" fill="#000000" text-anchor="middle" style="white-space: pre;" direction="ltr">Stolberg(Rheinl)Hbf</text><text x="90" y="45" font-family="Virgil" font-size="20px" fill="#000000" text-anchor="middle" style="white-space: pre;" direction="ltr">8000348</text></g><g transform="translate(239 16) rotate(0 119 27)"><text x="119" y="18" font-family="Virgil" font-size="20px" fill="#000000" text-anchor="middle" style="white-space: pre;" direction="ltr">Stolberg(Rheinl)Hbf Gl.27</text><text x="119" y="45" font-family="Virgil" font-size="20px" fill="#000000" text-anchor="middle" style="white-space: pre;" direction="ltr">8098348</text></g><g transform="translate(114 108) rotate(0 117 27)"><text x="117" y="18" font-family="Virgil" font-size="20px" fill="#000000" text-anchor="middle" style="white-space: pre;" direction="ltr">Stolberg(Rheinl)Hbf Gl.44</text><text x="117" y="45" font-family="Virgil" font-size="20px" fill="#000000" text-anchor="middle" style="white-space: pre;" direction="ltr">8098349</text></g><g transform="translate(10 11) rotate(0 101.5 29.5)"><path d="M-0.4158331193542495 -0.2126035489794001 C60.77931942436976 0.5163384780426739, 121.28933120774067 0.6545237274742361, 202.09037010070662 -1.3400527905772908 M0.2972489062097199 0.28519644939055366 C54.59755011684909 -1.687048271633131, 108.59913958360494 -0.2041801001464434, 202.4128038466405 -0.7316068173749692 M201.7500446047634 -0.5968834664672613 C202.801601404557 20.727923015784473, 204.60119372070767 40.29938210118562, 202.60518141649663 60.712155709043145 M202.25413835514337 0.5125411255285144 C203.57451412196272 16.80352901732549, 202.73260170335882 32.9804526925087, 202.19504538644105 59.03584889601916 M203.1015247361964 58.82510733744228 C131.86746813587348 57.934476586324934, 62.62521634658413 59.316493648680684, 0.19831480220150796 59.21619146899197 M203.361284224358 59.09522438497534 C137.71166937772196 59.09840635464947, 72.54081832729028 59.321476892745345, -0.3831761129440896 58.23026967584989 M-0.8891585860401392 58.42589325644076 C-0.9603253741655499 39.65435878904536, -0.06353075698949395 22.655966182611877, 0.4177413787692785 0.7940945718437433 M0.03665060270577669 58.16124321054667 C0.07350224298425023 41.39746253238991, -0.9084725077729672 25.563990196213126, -0.6789574874565005 0.043122987262904644" stroke="#000000" stroke-width="1" fill="none"></path></g><g transform="translate(238 10) rotate(0 124 31.5)"><path d="M0.8269555457712375 -1.3314884765964352 C79.64009771021747 -1.1102112369059105, 159.76842888103198 -0.8371655415061733, 246.99806772827586 0.6962300044025816 M-0.5857261421172183 0.5361770597554069 C57.90737936432532 1.5331774304990184, 114.74874721583203 1.0370738262044918, 248.18168129258206 -0.4357753722077627 M249.61663509346545 0.5925966706126928 C248.9547831487935 20.90991585412994, 248.36013067486695 40.38387222941965, 246.07846624590456 64.64415605925024 M248.33776054810733 0.039417688734829426 C249.05102335751988 22.53962930859998, 247.46842148245312 44.994496575742964, 248.74879891704768 62.27252480853349 M247.7166435857908 62.16209770757758 C173.46340381924517 62.66941949554723, 97.74765275784712 63.11635610123597, -0.1293223249983348 62.0754212053811 M247.47536341897842 63.78689110754076 C190.77898094386018 62.573778835182566, 133.71321126636954 62.21601567365614, 0.4103699364695866 63.18992252341313 M-1.4288140442222357 64.71727134846151 C-1.7876907538156956 40.54541569715366, -1.0023116420488805 16.743942354805768, -1.2995443847030401 1.6930059995502234 M-0.06557555962353945 63.602161412127316 C1.2165125515218824 47.13380484497175, 0.24678184649907053 31.221239179000257, -0.4233455555513501 0.6866879807785153" stroke="#000000" stroke-width="1" fill="none"></path></g><g transform="translate(103 99) rotate(0 133.5 35.5)"><path d="M0.27670591053598076 -0.05708211767268329 C78.829436779956 -2.632287846828395, 157.78089518919688 -3.3593106845114526, 265.85480667421155 -0.9900275353605285 M-0.4860447980917461 -0.5314678866770379 C83.09663035514095 0.25874060860283404, 167.06691948537483 -0.6282711253682133, 266.3630894840685 -0.6699145288489692 M266.8927691075951 -0.1424072775989771 C269.16002220193855 20.640647135023027, 267.86238205711356 44.74879577066749, 267.8862622473389 71.76494129560888 M267.8936213059351 -0.005941207520663738 C266.170474616522 22.09785682754591, 267.12039685034193 46.80255074426532, 267.9569195015356 70.46125862468034 M265.93182807937956 70.29496692959246 C175.5847622342175 69.87011935585936, 85.79895273717707 70.42112541946108, -1.563718896297334 69.87355363138398 M267.0272295244071 70.51464145512084 C203.6976578795214 72.51511998744913, 140.76912399420524 73.52746372703002, -0.42709817954256607 71.70012890079224 M0.728759178891778 72.93432428501546 C0.13418871854431924 49.745964790787546, -0.3332245280873031 30.00269463676959, 0.740276763215661 1.899637183174491 M0.17676285933703184 71.51998305786401 C0.7249043720867484 45.40585748692974, 0.24228761970065527 18.790638051554552, 0.8350222213193774 -0.6423546923324466" stroke="#000000" stroke-width="1" fill="none"></path></g><g><g transform="translate(172 50) rotate(0 5.192974774148297 32.015322913322606)"><path d="M1.1397823099046944 0.8318814095109699 C2.3164108637720346 11.23547180655102, 6.602129650488496 52.233692063515385, 7.947518504038453 62.86570844016969 M0.2790292932651939 0.22301520416513076 C1.737866549100727 10.692858307852099, 8.727128848042339 53.40995718508338, 10.106920255031437 63.80763062248006" stroke="#000000" stroke-width="1" fill="none"></path></g><g transform="translate(172 50) rotate(0 5.192974774148297 32.015322913322606)"><path d="M-2.842570123489857 35.70050126112149 C-0.6606357488960883 47.52746156896704, 7.631163079603582 57.2337725277577, 11.362565241437405 63.04676942499354 M-3.3323927188701035 37.473999661235965 C1.278863848038732 46.16144094742644, 5.563418617820101 54.729699684752866, 10.157618426401168 63.05906081078574" stroke="#000000" stroke-width="1" fill="none"></path></g><g transform="translate(172 50) rotate(0 5.192974774148297 32.015322913322606)"><path d="M17.450784962335003 32.650953467355045 C12.054719627438793 45.81113046085383, 12.75723119959828 56.65790804583576, 11.362565241437405 63.04676942499354 M16.960962366954757 34.42445186746952 C15.033659508184144 43.96793482540119, 12.754190450558362 53.52259055309429, 10.157618426401168 63.05906081078574" stroke="#000000" stroke-width="1" fill="none"></path></g></g><g><g transform="translate(181 113) rotate(0 -5.026391711691389 -34.89431505530142)"><path d="M0.4637517336755992 0.9599362548440695 C-1.228934923435251 -10.551022476330399, -7.861463232462605 -57.058360869064934, -9.717042421922088 -68.7547486010939 M-0.7519173354841768 0.4182988432981074 C-2.616285776390384 -11.504045473542066, -8.67735029845809 -59.34292353710159, -10.516535157058389 -70.74856636544689" stroke="#000000" stroke-width="1" fill="none"></path></g><g transform="translate(181 113) rotate(0 -5.026391711691389 -34.89431505530142)"><path d="M5.192187894486137 -43.80168124458842 C-0.8164574286999913 -54.246270037046145, -6.338081259364635 -63.8919082092, -9.533982380945236 -69.94351060746237 M2.7368667622807106 -44.60805393274032 C-1.3898656629876376 -52.62538909819977, -6.496261629423539 -63.22718664958063, -11.098568930011243 -70.1008205726929" stroke="#000000" stroke-width="1" fill="none"></path></g><g transform="translate(181 113) rotate(0 -5.026391711691389 -34.89431505530142)"><path d="M-15.126638953049223 -40.92674160596722 C-14.303625521522855 -52.41752983055227, -12.986139621541692 -63.03084334169344, -9.533982380945236 -69.94351060746237 M-17.58196008525465 -41.73311429411912 C-14.768810909981632 -50.7357030849678, -12.919570906015377 -62.32166343832432, -11.098568930011243 -70.1008205726929" stroke="#000000" stroke-width="1" fill="none"></path></g></g><g><g transform="translate(273 52) rotate(0 -5.746586450794723 30.888988951537755)"><path d="M0.769377363100648 1.0146942313760519 C-1.3533843672523898 10.916541693235436, -9.44025532764693 50.10174582165976, -11.894757246598601 60.17294943891466 M-0.28583825061097734 0.5018047575093805 C-2.5435711782115202 10.468989885045836, -10.382508243614186 51.471239166253554, -12.262550264690072 61.27617314556613" stroke="#000000" stroke-width="1" fill="none"></path></g><g transform="translate(273 52) rotate(0 -5.746586450794723 30.888988951537755)"><path d="M-15.331658419268631 33.498320782828486 C-16.4511625857795 40.99351942381672, -12.57420104875816 54.4269131900047, -12.041319033224136 60.32894723774865 M-17.469700451055967 32.07140437633858 C-15.256737223743743 41.63215502428989, -14.266572651360441 50.236194903762765, -12.864363481383771 61.15039012400433" stroke="#000000" stroke-width="1" fill="none"></path></g><g transform="translate(273 52) rotate(0 -5.746586450794723 30.888988951537755)"><path d="M4.821351979879935 37.36822701394691 C-3.782380586106297 43.56018621071286, -7.365077908351765 55.56112994934991, -12.041319033224136 60.32894723774865 M2.6833099480925995 35.941310607457 C-1.6491257920971192 44.42521266188141, -7.166573578613876 51.779620396150094, -12.864363481383771 61.15039012400433" stroke="#000000" stroke-width="1" fill="none"></path></g></g><g><g transform="translate(260 107) rotate(0 6.50242728628217 -32.93246387280523)"><path d="M-0.41664428673684595 0.16363492570817462 C1.8829413695881763 -10.93714860913654, 11.34350934860607 -55.060233436400694, 13.42149885930121 -66.02856267131865 M1.5654787333868443 -0.7960606836341322 C3.776825570470343 -11.832887826071431, 10.54773288767164 -54.38577920228864, 12.69474029680714 -65.03113282253966" stroke="#000000" stroke-width="1" fill="none"></path></g><g transform="translate(260 107) rotate(0 6.50242728628217 -32.93246387280523)"><path d="M18.131137941038826 -34.776367745611324 C14.614956685045495 -45.017644932461, 13.864693402328214 -50.54529397122666, 14.374364684801549 -63.88229994444177 M17.05276006926469 -35.15461615497942 C16.53146352313959 -43.613264942935025, 15.490878800130178 -50.988592332248686, 13.415482115466148 -64.10280433358625" stroke="#000000" stroke-width="1" fill="none"></path></g><g transform="translate(260 107) rotate(0 6.50242728628217 -32.93246387280523)"><path d="M-2.0727630486288398 -38.37113994778848 C-0.1435959026914042 -47.57647752070271, 4.5342301598545305 -52.13833561150911, 14.374364684801549 -63.88229994444177 M-3.1511409204029768 -38.749388357156576 C1.6707407488973698 -46.407071883596494, 5.996169351144843 -52.82765317966755, 13.415482115466148 -64.10280433358625" stroke="#000000" stroke-width="1" fill="none"></path></g></g><g><g transform="translate(248 42) rotate(0 -27.20594156870618 1.756495550433172)"><path d="M-0.8708475586026907 -0.6825013104826212 C-9.843411051854492 -0.194884068146348, -45.49266312085092 2.3584934052079913, -54.22075830660761 2.7757817443460224 M0.8728187437914312 1.5735815561749043 C-8.243361872229725 2.2590655989386144, -46.20493012825027 4.037779231164604, -55.2847018812038 4.195492411348969" stroke="#000000" stroke-width="1" fill="none"></path></g><g transform="translate(248 42) rotate(0 -27.20594156870618 1.756495550433172)"><path d="M-31.35179719100957 -6.307757490558613 C-37.316646124365384 -2.1390266809163387, -45.62355931234344 1.19469485795413, -55.87886809112504 3.1983733031339945 M-31.17185008204793 -6.080860803147841 C-37.733296705911016 -2.187076639910452, -45.39636310035962 1.0472811716432826, -56.11800371317193 3.8827614778093995" stroke="#000000" stroke-width="1" fill="none"></path></g><g transform="translate(248 42) rotate(0 -27.20594156870618 1.756495550433172)"><path d="M-30.702300467844726 12.178403710326032 C-36.81804433370236 11.390251701205568, -45.2989480949531 9.771803859944036, -55.87886809112504 3.1983733031339945 M-30.522353358883084 12.405300397736804 C-37.14474186791869 10.691372472592116, -45.00472031976098 8.321163077647864, -56.11800371317193 3.8827614778093995" stroke="#000000" stroke-width="1" fill="none"></path></g></g><g><g transform="translate(193 48) rotate(0 30.883592211827647 -2.472357941884539)"><path d="M-0.3079123679548502 -0.03791354857385154 C10.10562675955395 -0.724022904659311, 52.026491059487064 -2.4167341665675246, 62.07509679161012 -3.2027721878141167 M1.731294909529388 -1.1034221069142223 C12.116420790168146 -2.205371126743654, 51.58927999676516 -4.451942815793057, 61.69147714357823 -4.906802335195243" stroke="#000000" stroke-width="1" fill="none"></path></g><g transform="translate(193 48) rotate(0 30.883592211827647 -2.472357941884539)"><path d="M34.0165388976806 8.614958184996087 C42.66811924112944 2.0782013908487222, 47.431513145099075 0.6952745517888239, 62.374675318039955 -6.2477228933945295 M34.28482165295865 6.8918382117910575 C43.66300312184393 2.314000241932763, 51.71730592255649 -0.9251682865011785, 62.5221014007926 -5.843282340466976" stroke="#000000" stroke-width="1" fill="none"></path></g><g transform="translate(193 48) rotate(0 30.883592211827647 -2.472357941884539)"><path d="M32.93660571560454 -11.877814851079108 C42.03168266035765 -12.957543137133886, 47.082506362781615 -8.886212507962245, 62.374675318039955 -6.2477228933945295 M33.204888470882594 -13.600934824284138 C42.7372998163433 -11.593112107627505, 51.13846285478462 -8.25027329987612, 62.5221014007926 -5.843282340466976" stroke="#000000" stroke-width="1" fill="none"></path></g></g></svg>